<svg width="1440" height="747" viewBox="0 0 1440 747" fill="none" xmlns="http://www.w3.org/2000/svg">
<g clip-path="url(#clip0_396_668)">
<rect width="1440" height="747" fill="#4444aa"/>
<rect width="1440" height="747" fill="#4444aa"/>
<path d="M-36 217.142L238 -17" stroke="#5200B6" stroke-width="36"/>
<path d="M-15 300L337 -10.0001" stroke="#5200B6" stroke-width="36"/>
<path d="M-22 401L471 -19.5" stroke="#5200B6" stroke-width="36"/>
<path d="M160.063 259L478 771.5" stroke="#5200B6" stroke-width="36"/>
<path d="M-179.937 -231L64.7505 149.438" stroke="#5200B6" stroke-width="36"/>
<path d="M1660.86 99.5984L1212 43.617" stroke="#5200B6" stroke-width="36"/>
<path d="M212.377 198L581.314 768" stroke="#5200B6" stroke-width="36"/>
<path d="M350.5 91.5L444.5 227M420.5 29L504.5 141M578 73.5L496.5 -27" stroke="#5200B6" stroke-width="36"/>
<path d="M-134.937 -293L109.751 87.438" stroke="#5200B6" stroke-width="36"/>
<path d="M276.806 145L694.243 771.5" stroke="#5200B6" stroke-width="36"/>
<path d="M-78.9371 -348L165.751 32.438" stroke="#5200B6" stroke-width="36"/>
<path d="M240.955 665.152C217.721 667.562 196.216 678.536 180.631 695.936C165.046 713.336 156.498 735.915 156.653 759.274C156.808 782.632 165.654 805.097 181.468 822.289C197.282 839.48 218.931 850.169 242.195 852.27L245.068 820.466C229.707 819.078 215.413 812.021 204.971 800.67C194.53 789.318 188.689 774.485 188.586 759.062C188.484 743.639 194.128 728.731 204.418 717.242C214.709 705.753 228.908 698.507 244.249 696.916L240.955 665.152Z" fill="#5200B6"/>
<path d="M706.61 359.263C709.878 346.366 710.371 332.922 708.056 319.821C705.742 306.72 700.673 294.259 693.184 283.262C685.695 272.266 675.957 262.985 664.614 256.032C653.271 249.079 640.581 244.613 627.383 242.93C614.186 241.247 600.782 242.384 588.057 246.267C575.331 250.15 563.575 256.689 553.566 265.454C543.556 274.218 535.522 285.008 529.992 297.109C524.463 309.21 521.566 322.346 521.491 335.65L553.425 335.829C553.474 327.044 555.387 318.37 559.038 310.38C562.689 302.39 567.994 295.266 574.603 289.479C581.212 283.692 588.974 279.374 597.376 276.81C605.778 274.247 614.629 273.496 623.343 274.607C632.057 275.719 640.436 278.667 647.925 283.258C655.415 287.849 661.845 293.977 666.789 301.238C671.734 308.498 675.081 316.726 676.61 325.377C678.138 334.027 677.813 342.904 675.655 351.419L706.61 359.263Z" fill="#5200B6"/>
<path d="M1533.42 231.047C1531.46 282.925 1487.81 323.387 1435.93 321.423C1384.06 319.458 1343.59 275.81 1345.56 223.933C1347.52 172.055 1391.17 131.593 1443.05 133.557C1494.92 135.522 1535.39 179.17 1533.42 231.047ZM1377.47 225.141C1376.17 259.395 1402.89 288.214 1437.14 289.512C1471.39 290.809 1500.21 264.092 1501.51 229.839C1502.81 195.585 1476.09 166.765 1441.84 165.468C1407.59 164.171 1378.77 190.888 1377.47 225.141Z" fill="#5200B6"/>
<path d="M1307.74 221.016C1306.4 256.449 1276.59 284.085 1241.16 282.743C1205.72 281.401 1178.09 251.59 1179.43 216.157C1180.77 180.724 1210.58 153.088 1246.02 154.43C1281.45 155.772 1309.09 185.583 1307.74 221.016ZM1206.71 217.19C1205.94 237.555 1221.83 254.688 1242.19 255.46C1262.55 256.231 1279.69 240.347 1280.46 219.983C1281.23 199.619 1265.35 182.485 1244.98 181.713C1224.62 180.942 1207.48 196.826 1206.71 217.19Z" fill="#5200B6"/>
<path d="M277.146 760.336C299.029 754.824 318.199 741.623 331.153 723.145C344.107 704.667 349.982 682.145 347.704 659.694C345.425 637.243 335.146 616.36 318.744 600.861C302.342 585.362 280.911 576.281 258.367 575.277L256.946 607.179C271.832 607.842 285.982 613.838 296.812 624.072C307.642 634.306 314.429 648.094 315.933 662.918C317.437 677.742 313.558 692.613 305.005 704.813C296.451 717.014 283.794 725.73 269.346 729.37L277.146 760.336Z" fill="#5200B6"/>
<path d="M605.317 327.228C599.882 349.13 602.508 372.257 612.716 392.383C622.923 412.509 640.03 428.292 660.912 436.847C681.794 445.403 705.057 446.161 726.451 438.982C747.845 431.804 765.943 417.169 777.439 397.75L749.959 381.482C742.369 394.304 730.419 403.968 716.293 408.707C702.167 413.447 686.807 412.947 673.019 407.297C659.231 401.648 647.936 391.228 641.196 377.939C634.456 364.65 632.722 349.38 636.311 334.918L605.317 327.228Z" fill="#5200B6"/>
<path d="M1152.8 -83.6802C1130.23 -83.3172 1108.55 -74.849 1091.72 -59.8226C1074.88 -44.7961 1064.01 -24.2144 1061.1 -1.83694C1058.18 20.5405 1063.41 43.22 1075.84 62.0587C1088.26 80.8974 1107.05 94.6379 1128.76 100.77L1137.44 70.0382C1123.1 65.9891 1110.7 56.9165 1102.49 44.4777C1094.29 32.0389 1090.84 17.0642 1092.76 2.28882C1094.69 -12.4865 1101.86 -26.0762 1112.98 -35.9979C1124.1 -45.9195 1138.41 -51.5108 1153.31 -51.7505L1152.8 -83.6802Z" fill="#5200B6"/>
<path d="M215 364L66 408L61.5 567.5L-32 582.5M277 451.5L161.5 485L149.5 647L34.5 677.5L23 794" stroke="#5200B6" stroke-width="36"/>
<path d="M1519.67 516.812L1429.98 389.953L1277.55 437.115L1189 338L1047 379.5L1019 338M1456.83 603.711L1387.88 505.178L1230.67 546.046L1152 445.5L1010 496L955.5 424.5" stroke="#5200B6" stroke-width="36"/>
<path d="M390.5 310.5L747 -15L690 37.0435L980 283.5" stroke="#5200B6" stroke-width="36"/>
<path d="M574 496L1461.5 663.5" stroke="#5200B6" stroke-width="36"/>
<path d="M625 585L1512.5 752.5" stroke="#5200B6" stroke-width="36"/>
<path d="M689 675L1576.5 842.5" stroke="#5200B6" stroke-width="36"/>
<path d="M1015 137.5L746 -7M1006 30.5L835.5 -46.5" stroke="#5200B6" stroke-width="36"/>
<path d="M863.5 558L1272.5 -34" stroke="#5200B6" stroke-width="36"/>
<path d="M647 93L885 383" stroke="#5200B6" stroke-width="36"/>
</g>
<defs>
<clipPath id="clip0_396_668">
<rect width="1440" height="747" fill="white"/>
</clipPath>
</defs>
</svg>
