<?xml version="1.0" standalone="no"?>
<!DOCTYPE svg PUBLIC "-//W3C//DTD SVG 20010904//EN"
 "http://www.w3.org/TR/2001/REC-SVG-20010904/DTD/svg10.dtd">
<svg version="1.0" xmlns="http://www.w3.org/2000/svg"
 width="525.000000pt" height="525.000000pt" viewBox="0 0 525.000000 525.000000"
 preserveAspectRatio="xMidYMid meet">
<metadata>
Created by potrace 1.14, written by Peter Selinger 2001-2017
</metadata>
<g transform="translate(0.000000,525.000000) scale(0.100000,-0.100000)"
fill="#000000" stroke="none">
<path d="M4127 4833 c-2 -1 -36 -4 -77 -8 -83 -6 -99 -8 -215 -31 -385 -77
-668 -312 -764 -637 -41 -137 -46 -179 -45 -377 1 -132 6 -183 23 -254 68
-281 231 -491 466 -602 96 -46 202 -78 293 -91 71 -10 373 -10 429 -1 92 16
190 58 254 110 62 51 123 176 128 265 1 6 10 11 21 10 11 -1 19 -6 16 -13 -4
-10 -86 -322 -86 -327 0 -2 457 0 475 2 13 1 13 717 1 771 -36 159 -162 274
-323 296 -62 8 -581 9 -590 1 -3 -4 -6 -90 -7 -192 l-1 -185 194 0 193 0 -28
-37 c-134 -177 -368 -264 -559 -208 -141 41 -246 162 -280 322 -51 237 39 477
222 599 216 143 507 142 997 -6 89 -27 170 -52 179 -56 16 -6 17 16 17 263 l0
270 -127 31 c-135 34 -201 47 -280 58 -26 3 -50 8 -53 9 -19 11 -463 28 -473
18z"/>
<path d="M2348 4802 l-48 -3 0 -962 0 -962 278 0 277 0 1 963 1 962 -26 0
c-195 4 -446 4 -483 2z"/>
<path d="M190 3840 l0 -960 23 -1 c78 -2 1120 3 1152 6 122 10 179 16 184 19
3 2 27 7 53 10 179 24 370 127 449 243 62 89 85 180 83 326 -3 157 -58 298
-158 405 -30 32 -30 33 -13 62 70 118 98 293 71 438 -29 158 -116 283 -244
351 -115 61 -106 60 -887 61 l-713 0 0 -960z m1242 464 c41 -21 58 -53 58
-109 0 -59 -14 -90 -53 -119 -27 -20 -41 -20 -350 -21 -177 -1 -327 0 -332 2
-8 3 -13 214 -6 254 1 3 148 6 329 6 260 1 333 -2 354 -13z m38 -592 c53 -25
79 -64 84 -126 5 -58 -24 -117 -72 -148 -37 -23 -41 -23 -388 -26 l-352 -3 3
158 c1 87 3 160 4 163 0 3 153 5 339 5 326 -1 339 -2 382 -23z"/>
<path d="M1115 2434 c-191 -21 -287 -41 -412 -85 -142 -50 -240 -108 -338
-201 -118 -111 -174 -242 -173 -398 3 -276 177 -452 513 -518 55 -11 107 -20
115 -20 8 0 56 -3 105 -6 50 -3 142 -8 205 -11 267 -13 370 -50 372 -133 3
-115 -194 -159 -522 -117 -75 10 -114 16 -130 20 -8 2 -37 7 -65 11 -27 3 -53
8 -56 10 -4 2 -23 6 -44 10 -84 13 -388 93 -460 120 -12 5 -14 -33 -13 -259
l1 -266 96 -35 c181 -66 352 -112 516 -141 270 -46 608 -10 846 90 211 89 370
246 430 423 28 82 34 224 13 314 -52 224 -255 373 -559 414 -96 12 -142 15
-295 19 -280 7 -386 27 -429 78 -50 61 7 116 149 143 35 6 308 7 365 0 17 -2
64 -7 105 -10 41 -4 86 -9 100 -11 14 -3 45 -7 69 -10 23 -3 55 -7 70 -10 218
-36 271 -46 299 -54 29 -9 32 -8 33 12 5 125 0 480 -7 486 -5 4 -45 16 -89 26
-44 9 -107 23 -140 31 -88 20 -255 54 -295 60 -19 2 -46 7 -60 10 -29 7 -272
12 -315 8z"/>
<path d="M4048 2435 c-2 -1 -32 -6 -68 -9 -93 -10 -127 -15 -195 -32 -339 -84
-562 -250 -639 -476 -37 -109 -28 -272 20 -377 74 -163 257 -278 504 -316 25
-4 54 -9 64 -11 25 -5 158 -12 324 -19 270 -11 389 -57 375 -145 -12 -82 -111
-121 -298 -120 -162 1 -247 13 -560 74 -19 4 -144 33 -175 41 -78 21 -163 45
-200 59 -25 8 -48 16 -51 16 -4 0 -7 -119 -6 -265 l0 -265 26 -7 c14 -3 31 -9
36 -13 22 -16 301 -102 402 -124 140 -31 162 -35 258 -43 444 -38 858 91 1056
329 102 123 140 235 135 398 -6 210 -95 348 -281 440 -74 36 -195 72 -290 85
-22 3 -53 8 -70 10 -16 3 -113 7 -215 10 -102 3 -203 8 -225 11 -100 13 -119
16 -142 25 -56 21 -83 49 -83 84 0 118 291 141 835 64 212 -30 212 -30 291
-49 l74 -17 1 26 c1 53 4 481 3 481 -1 0 -55 13 -120 29 -132 33 -392 86 -469
96 -49 7 -311 15 -317 10z"/>
<path d="M2299 2401 c-1 -8 -1 -1929 0 -1958 l1 -23 285 2 285 2 0 991 0 992
-285 0 c-157 0 -285 -3 -286 -6z"/>
</g>
</svg>
