<?xml version="1.0" encoding="UTF-8"?>
<svg id="Layer_1" data-name="Layer 1" xmlns="http://www.w3.org/2000/svg" viewBox="0 0 351.05 92.13">
  <defs>
    <style>
      .cls-1 {
        fill: #f37d77;
      }

      .cls-1, .cls-2, .cls-3, .cls-4, .cls-5 {
        stroke-width: 0px;
      }

      .cls-2 {
        fill: none;
      }

      .cls-3 {
        fill: #f47a20;
      }

      .cls-4 {
        fill: #FF4834;
      }

      .cls-5 {
        fill: #ffca39;
      }
    </style>
  </defs>
  <rect class="cls-4" x="-348.11" y="-21.89" width="816.43" height="114.38"/>
  <path class="cls-1" d="m466.88,77.23c.5.04,1,.06,1.48.05v-9.83s-4.91,0-4.91,0c-.69,1.33-.2,2.86-.65,4.19-.31.92-.77,1.99-2.02,2.14-.57.06-1.03-.29-1.1-.74-.16-1-.51-2.09.4-2.95.76-.73,1.34-1.55,1.43-2.63v-.02s-7.84,0-7.84,0c0,0,0,.02,0,.02-.62,3.8-2.94,6.78-4.83,9.97-3.99,6.7-14.65,6.19-19.59,2.93-1.26-.84-2.66-.97-3.91-1.64-.82-.44-1.51-.91-1.55-1.97-.02-.64.19-1.17.78-1.38.96-.34,1.64.12,2.35.79,2.89,2.68,6.32,4.2,10.27,4.5,4.21.32,7.6-1.32,10.03-4.64,1.9-2.6,3.84-5.26,4.49-8.56,0,0,0-.02,0-.02h-6.86s0,.02-.01.02c-.81,1.63-1.62,1.27-2.42,0,0,0-.01-.02-.02-.02h-6.85s0,.02,0,.02c.13,1.74,1.52,2.69,2.48,3.89.56.7,1.26,1.35.77,2.27-.28.52-.77,1.32-1.45,1.06-.75-.29-1.62-.57-1.9-1.65-.51-1.89-1.22-3.72-1.85-5.58,0,0,0-.02,0-.02h-6.85s0,.02.01.02c.43.77.81,1.5-.08,2.27-.51.44-.98.88-1.66.53-1.15-.59-1.36-1.64-1.22-2.8v-.02s-14.2,0-14.2,0c-.01,0-.02.02-.03.02-1.73,1.49-3.85,2.03-6.02,2.42-2.04.37-4.03.8-5.73,2.17-.78.62-1.79,1.22-2.89.51-.66-.43-.66-1.2-.44-1.77.42-1.1,1.34-1.41,2.54-1.43,2.37-.06,4.64-.59,6.66-1.9.01,0,.02-.02.03-.02h-35.75s0,.02,0,.02c-.91,2.73-2.72,5.16-2.86,8.13-.06,1.26-.9,1.58-1.75,2-.6.3-1.03-.19-1.1-.58-.19-.99-.47-2.02.33-2.97,1.62-1.9,2.65-4.09,2.94-6.58,0,0,0-.02,0-.02h-7.83s0,.02,0,.02c-.71,3.23-2.28,6.23-2.67,9.56-.17,1.42-.68,2.82-.7,4.23-.02,1.28-.72,1.98-1.58,2.52-.51.32-1.18-.18-1.59-.64-.82-.92.02-1.69.39-2.39,2.06-3.84,1.99-8.3,3.71-12.23.16-.36.32-.71.47-1.06,0,0,0-.02.01-.02h-8.32s0,.02,0,.02c-.25,2.86-1.39,5.51-1.97,8.29-.79,3.79-.79,7.63-1.03,11.47-.11,1.76-.32,3.51-.4,5.28h7.96c4.44-4.49,9.21-8.54,15.55-10.35,1.07-.31,2.11-.7,3.18-.97.46-.11.98-.02,1.99-.02,2.19.65,4.95.53,7.69.45,1.21-.04,1.71.69,1.69,1.53-.02.84-.57,1.55-1.76,1.47-2.32-.16-4.49-.96-6.86-1.13-5.07-.38-9.02,1.9-12.9,4.45-2.05,1.35-4.09,2.75-5.71,4.57h14.07c-.24-.31-.36-.7-.31-1.12.12-.99.61-2.3,2.07-1.88,1.59-.18,2.06,1.03,2.08,1.91,0,.41-.11.78-.32,1.09h5.34c-.07-.4-.04-.84.59-1.12.87-.39,1.66-.74,2.46-.04.5.44,1.01.82,1.54,1.16h13.08c-.15-.19-.25-.42-.32-.7-.28-1.12.59-1.66,1.44-1.79,3.52-.55,6.58-2.09,9.62-3.91,5.15-3.09,7.53-7.88,8.79-13.42.16-.71.33-1.4.64-2.03.44-.92,1.3-.93,2.1-.64.87.32.98,1.23.69,1.86-3.57,7.86-6.78,16.07-16.4,18.57-1.2.31-2.1,1.13-3.09,1.76-.15.1-.3.19-.44.29h14.89c-.57-1.13-.22-1.77.99-2.16,1.41-.46,2.09.74,2.03,1.55-.02.2-.03.41-.03.61h7.32c-.32-.96-.59-1.94-.83-2.93-.38-1.59-1.68-2.53-2.77-3.58-.67-.65-.83-1.38-.49-2.19.24-.59.8-.76.92-.74,1.9.16,2.4,1.3,2.74,2.31.82,2.4,1.69,4.78,2.63,7.13h7.67c-.58-.55-1.19-1.1-1.51-1.87-.59-1.38-.62-2.31,1.06-2.66,1.25.17,1.74.88,2.07,2.04.25.85.54,1.68.86,2.49h8.04c-.57-.68-1.24-1.23-1.74-1.95-.65-.94-.62-1.86.42-2.49,1.1-.66,1.99-.25,2.36.91.38,1.22.83,2.39,1.34,3.53h21.97s0-3.39,0-3.39c-1.71.15-3.41.4-5,1.27-.59.33-1.66.35-2.17-.56-.33-.6-.35-1.29.11-1.83.52-.62,1.08-1.3,2.63-.63,1.45.29,2.93.25,4.42.03v-7.51c-.38.17-.75.36-1.11.58-.73.45-1.57.33-2.19-.41-.29-.35-.89-.69-.44-1.2.62-.69,1.08-1.72,2.26-1.62Zm-89.3-3.01c-1,.07-1.94-.11-2.59.25-1.13.64-1.86.06-2.55-.53-.63-.54-.35-1.33.06-1.91.61-.87,1.44-1.02,2.49-.7,4.14,1.28,8.42,1.69,12.72,1.95,1.03.06,1.73.45,2.14,1.28.29.57.33,1.31-.25,1.79-.78.65-1.73.59-2.51.15-3.02-1.72-6.38-1.87-9.52-2.27Zm27.59,4.7c-3.95.6-6.98,3.37-10.73,4.43-1.76.5-2.98,1.86-4.18,3.17-.57.61-1.12,1.2-2,.99-.89.05-1.5-.19-1.67-1.1-.18-.94.23-1.8,1.01-2,3.91-1.05,6.92-3.97,10.71-5.12,2.13-.65,3.9-1.73,5.61-3.01,1.04-.78,2.06-.88,2.62.32.54,1.16-.17,2.16-1.37,2.33Zm48.59,12.48c-1.48-.03-2.37-1-2.5-2.39-.12-1.21.69-1.98,1.91-1.96,1.39.02,1.97,1.12,2.52,2.14-.29,1.16-.6,2.23-1.92,2.21Zm3.07-8.76c-1.3-.06-2.18-.66-2.16-2.04.01-1.37.86-2.33,2.18-2.33,1.31,0,2.16.96,2.17,2.33.01,1.38-.87,1.98-2.19,2.03Zm-111.41-15.18v-.02s-7.83,0-7.83,0c0,0,0,.02,0,.02-1.25,3.31-1.3,6.84-1.92,10.27-.65,3.62-1.18,7.28-1.44,10.95-.09,1.28-.12,2.55-.06,3.81h7.37c1.28-3.97.84-8.17,1.29-12.23.36-3.2,1.05-6.29,1.55-9.43.19-1.22,1.05-2.16,1.05-3.38Zm-13.29,22.33c.56-5.83,1.39-11.61,2.24-17.4.24-1.65.51-3.29.76-4.94,0,0,0-.02,0-.02h-6.85s0,.02,0,.02c-.06.79.11,1.72-.24,2.35-2.05,3.64-2.27,7.59-2.21,11.61.02,1.07.11,2.32-1.51,2.12-1.49-.19-1.78-1.45-1.38-2.53,1.48-3.96,1.92-8.05,1.99-12.23.01-.45.26-.88.4-1.32,0,0,0-.02,0-.02h-15.18s-.02.02-.02.02c-2.06,2.04-4.49,2.91-7.34,2.15-1-.26-1.82-.1-2.79.18-2.28.67-3.69-.36-3.56-2.33v-.02s-21.06,0-21.06,0c-.01,0-.02.02-.03.02-1.77,1.14-3.79,1.73-5.68,2.61-2.49,1.16-5.17,1.99-7.32,3.84-.6.51-1.16,1.31-2.06.66-.57-.4-1.31-.9-1.02-1.76.3-.87,1-1.28,1.97-1.52,2.97-.75,5.71-2.08,8.23-3.83.01,0,.02-.02.03-.02h-14.69s-.01.02-.02.02c-.33.42-.62.88-1.01,1.24-.6.56-1.09,1.58-2.14,1.07-.89-.43-1.43-1.22-1.24-2.31v-.02s-23.02,0-23.02,0c.01,0,.02.02.03.02,4.7,3.41,10.18,4.93,15.69,6.28,2.1.52,4.11,1.16,6.11,1.92,1.36.52,2.83.48,4.24.71,1.09.18,2.26.86,1.79,2.34-.44,1.41-1.86,1.29-2.64.8-5.69-3.65-12.61-3.51-18.6-6.19-3.8-1.7-7.77-3.08-11-5.86-.01,0-.02-.02-.03-.02h-13.22s.02.02.03.02c4.48,3.38,9,6.75,13.84,9.61,4.88,2.88,10.41,4.27,15.88,5.46,5.27,1.14,10.01,3.53,14.99,5.33,1.27.46,1.76,1.38,1.09,2.42-.93,1.44-2.39.65-3.14-.12-1.81-1.85-4-2.74-6.31-3.73-3.57-1.53-7.53-1.24-11.03-2.83-3.55-1.61-7.61-1.65-11.04-3.62-5.89-3.37-11.17-7.62-16.79-11.38-.5-.34-.94-.77-1.4-1.15-.01,0-.02-.02-.03-.02h-20.57s.01.02.02.02c1.95,2.5,4.83,3.37,7.68,3.77,5.66.8,10.33,3.63,14.8,6.8,3.44,2.44,7.12,4.59,10.18,7.59,1.77,1.73,2.8,3.78,3.71,6.05.11.27.22.55.32.82h7.62c-.31-.43-.68-.82-1.1-1.19-.92-.78-.91-1.74-.59-2.79.25-.83.93-.44,1.42-.51,1.36-.17,1.73,1.02,1.89,1.83.18.93.43,1.82.73,2.66h7.12c0-.24.08-.48.25-.76.74-1.16,1.96-.75,2.86.06.26.24.52.47.78.7h17.83c-.04-.18-.06-.37-.06-.58.01-1.41.97-1.91,2.23-1.98,1.35-.06,1.72.67,1.66,1.85-.01.26-.05.49-.11.71h40.84c-.08-.32-.11-.68-.08-1.07-.12-1.22.23-2.02,1.7-1.96,1.5.05,2.17.77,2.23,2.26.01.3-.02.55-.09.77h10.53c.95-.76,1.83-1.64,2.66-2.62.66-.79,1.43-1.69,2.82-1.03.83.39.7.95.71,1.56.03,1.55-1.24,1.69-2.28,1.98-.12.03-.23.06-.34.1h9c-.12-.88-.16-1.78-.07-2.7Zm-60.31,1.18c-1.62.22-2.16-1.02-2.17-2.03,0-.87.51-2,1.95-1.94,1.31.06,2.21.54,2.29,1.9.08,1.41-.91,1.89-2.07,2.07Zm8.8-3c-1.09-.07-2.1-.46-1.79-1.81-.1-1.56.5-2.54,2-2.53,1.38.01,1.95.95,1.9,2.27-.05,1.35-.75,2.15-2.11,2.06Zm19.73,1.35c-.16,1.08-.95,1.18-2.49,1.08-2.17-2.55-6.01-2.53-9.36-3.81-.91-.34-1.19-1.4-.71-2.3.52-.99,1.48-.93,2.31-.43,1.75,1.06,3.35,2.35,5.38,2.97,1.24.38,2.54-.17,3.77.58.84.5,1.22.99,1.1,1.9Zm7.86-8.94c-.05,1.73-1.28,2.19-2.98,1.48-6.74-2.8-13.42-5.85-20.99-5.64-3.77.11-7.17,1.41-10.51,2.89-3.91,1.75-8.14,2.77-11.79,5.06-1.35.84-2.04.11-2.55-.82-.51-.91.1-1.62,1.04-1.75,6.86-1,12.53-5.23,19.18-6.93,5.75-1.48,11.03-.73,16.38,1.31,2.96,1.13,5.9,2.31,9.21,2.32,1.13,0,3.2-.14,3.01,2.07Zm9.39-6.82c-1.72,3.69-2.03,7.47-1.1,11.43.31,1.31-.25,2.47-1.64,2.82-1.41-.37-2.13-1.15-1.63-2.51,1.27-3.44,1.9-6.91.88-10.53-.26-.93.31-1.75.61-2.52.24-.62,1.16-1.21,2.01-.8.82.39,1.35,1.1.88,2.1Zm-101.44,13.24c-.42-.39-.76-.87-1.43-.78-3.31,0-3.55-.2-2.95-2.45-5.94-4.49-11.96-8.8-19.52-10.3-3.18-.63-6.22-1.77-8.89-3.8-.78-.59-1.05-1.32-1.5-2.01,0,0-.01-.02-.02-.02h-8.32s0,.02,0,.02c0,.87-.15,1.61-.64,2.46-.99,1.66-2.78,2.65-3.41,4.6-.32.99-1.42,1.62-2.48,1.62-.51,0-1.31-.71-1.21-1.34.17-1.02.73-2.03,1.77-2.43,2.3-.88,3.3-2.6,3.52-4.91,0,0,0-.02,0-.02h-8.81s0,.02-.01.02c-.94,2.19-2.04,4.32-2.77,6.57-1.03,3.15-2.91,5.64-5.15,7.97-3.1,3.23-5.67,6.89-8.29,10.5h9.48c1.79-3.01,3.9-5.75,6.9-7.82.33-.22.65-.48,1.02-.61,4.94-1.77,9.62-4.14,14.35-6.39,1.7-.81,3.11-.03,4.6.34,1.92.48,3.73,1.38,5.82,1.21,1.21-.09,2.16.72,1.89,1.94-.24,1.14-1.29,1.39-2.45.98-2.21-.78-4.17-2.42-6.53-1.95-2.46-.37-4.54.03-6.55,1.13-2.79,1.53-5.68,2.84-8.7,3.91-3.67,1.3-6.17,4.04-7.95,7.26h8.06c.38-.44.93-.67,1.71-.26.16.09.29.17.4.26h6.83c0-.66-.11-1.31-.32-2.02-.54-1.77.47-3.09,1.95-2.98,1.03.08,1.44.6,1.38,1.95-.68.92-1.02,1.95-1.22,3.04h16.48c1.17-2.95,1.89-6.02,1.98-9.29.03-.86.47-2.37,1.89-1.97,1.33.37,1.79,1.38,1.01,2.84-1.42,2.66-2.19,5.5-2.63,8.42h24.46c-.79-2.09-1.92-4.02-3.72-5.7Zm-30.78,5.53c-1.03-.13-2.18-.57-2.08-2.14.09-1.37.72-2.18,2.05-2.15,1.35.03,1.95.94,1.89,2.58-.08.88-.63,1.86-1.86,1.71Zm21.42-3.67c-.1,1.09-.46,2.11-1.93,1.76-1.41.38-2.24-.65-2.2-1.59.04-1.12.76-2.37,2.31-2.26,1.22.09,1.93.86,1.83,2.1Zm-48.62-16.44c.68-1.59,1.41-3.17,2.11-4.76,0,0,0-.02.01-.02h-8.32s0,.02-.01.02c-1.49,3.46-3.74,6.41-6.1,9.31-4.18,5.14-8.65,10.06-12.13,15.73h9.82c2.51-3.27,4.58-6.89,7.44-9.89,2.94-3.08,5.5-6.44,7.2-10.39Zm-8.67-4.76s0-.02.01-.02h-8.81s0,.02-.01.02c-1.48,2.82-4.08,4.7-6.01,7.17-4.02,5.15-8.46,9.99-10.87,16.23-.2.52-.07,1.13-.25,1.64h7.88c3.13-5.24,6.68-10.18,10.85-14.74,2.82-3.09,5.5-6.4,7.22-10.3Zm-11.25-.02h-10.29s-.01.02-.02.02c-2.51,3.38-5.91,6.09-7.56,10.13-.33.82-1.17,1.65-2.35.74-1.35-1.05-.6-2.1.18-2.8,2.63-2.39,4.57-5.34,6.78-8.07,0,0,.01-.02.02-.02h-9.8s0,.02,0,.02c.17.61-.31,1.03-.52,1.51-.43.95-1.39,1.53-2.25,1.19-1.16-.47-1.56-1.52-.67-2.69,0,0,.01-.02.02-.02h-7.83s0,.02,0,.02c-1.15,3.26-3.63,6.08-3.06,9.94.11.72-.7,1.79-1.67,2.2-.51.22-1.06-.03-1.3-.43-.54-.87-.45-1.75.09-2.69,1.61-2.83,2.28-6.03,3.49-9.02,0,0,0-.02.01-.02h-7.34s0,.02,0,.02c-.03.72.13,1.52-.15,2.14-.59,1.34-1.87,1.66-3.07,1.09-1.42-.67-1.56-1.91-.72-3.23,0,0,0-.02.01-.02h-8.82s0,.02,0,.02c.08,1.21.81,2.02,1.62,2.82.62.63,1.25,1.27,1.78,1.98.86,1.13.66,2.31-.61,2.76-.94.33-2.01-.19-2.29-1.43-.55-2.38-1.78-4.37-3.42-6.14-.01,0-.02-.02-.02-.02h-6.86s0,.02,0,.02c.13,2.05-1.42,2.69-2.78,2.3-1.53-.44-2.81-.13-4.2.12-3.83.71-7.56,1.69-11.18,3.18-1.24.51-1.85,1.75-3.07,2.28-.97.43-1.88.81-2.56-.2-.71-1.05.23-1.91.94-2.13,4.08-1.28,7.66-3.85,11.96-4.62,1.82-.32,3.73-.09,5.46-.92.02,0,.03-.02.05-.02h-21.06s-.01.02-.02.02c-2.42,2.85-4.77,5.7-4.97,9.73-.05.88-.99,2.12-2.13,1.81-1.03-.28-1.81-1.61-1.01-2.55,2.29-2.7,2.7-6.44,5.17-8.99l.02-.02h-10.29s0,.02,0,.02c.09,7.06-3.12,12.82-7.8,17.65-2.78,2.87-6.78,3.06-10.78,2.75-3.9-.3-6.83-2.88-10.41-3.85-.72-.19-1.82-.43-1.85-1.63-.02-.77.56-1.21,1.08-1.51,1.05-.62,1.96.16,2.53.8,1.79,2.02,4.13,3.04,6.56,3.8,4.3,1.34,8.71,1.03,11.83-2.28,4.04-4.3,7.28-9.27,6.4-15.73v-.02s-7.83,0-7.83,0c0,0,0,.02,0,.02-.26,1.37.74,2.4,1.14,3.56.38,1.09-.09,1.65-.5,2.35-.34.58-1.05.59-1.53.38-.89-.39-1-1.28-1.08-2.18-.12-1.37.71-2.74.03-4.11,0,0,0-.02-.01-.02h-7.35s0,.02,0,.02c.19,3.44.32,6.9,3.29,9.36.84.69.71,1.59.55,2.46-.1.58-.79.56-1.19.55-.95-.03-1.81-.58-2.06-1.45-1.03-3.64-2.7-7.1-3.04-10.92v-.02s-7.35,0-7.35,0v.02c-.12,1.84.73,3.4,1.5,4.96.46.93.82,1.78-.07,2.63-.33.32-.7.95-1.17.58-.79-.62-1.77-1.15-1.74-2.45.04-1.92.16-3.85-.47-5.72,0,0,0-.02,0-.02h-6.37s-.02.02-.03.02c-4.82,3.25-8.95,7.84-15.28,8.25-1.77.11-2.8,1.48-4.28,2.03-.84.31-1.62.82-2.48.17-.63-.47-.62-1.23-.37-1.78.44-.94,1.39-1.33,2.4-1.33,3.88.02,7.31-1.58,10.66-3.22,2.03-.99,4.23-1.96,5.44-4.12,0,0,0-.02.01-.02h-20.08s0,.02.01.02c.44.79.93,1.73.16,2.4-.7.61-1.54.88-2.77.77-3.72-.34-7.5-.33-11.23-.08-1.09.08-1.88-.02-2.51-.67-.72-.75-.26-1.63.17-2.41,0,0,0-.02.01-.02h-6.36s0,.02,0,.02c-1.36,4.48-4.29,8.39-4.87,13.16-.12,1.05-.65,1.66-1.52,1.95-.61.19-1.33.15-1.73-.54-.54-.91-.17-1.84.37-2.48,2.94-3.53,3.68-8,5.3-12.09,0,0,0-.02.01-.02h-7.83s0,.02-.01.02c-2.34,5.67-4.48,11.4-5.39,17.52-.11.78-.32,1.54-.49,2.31-.38,1.78-1.33,2.22-2.87,1.19-1.8,0-2.11-1.16-1.97-2.6.21-2.2,1.93-1.68,3.3-1.78,1.08-3.56,1.55-7.29,3-10.74.82-1.97,1.64-3.92,2.46-5.88,0,0,0-.02.01-.02h-7.83s0,.02-.01.02c-3.52,6.83-5.52,14.04-5.37,21.77.02,1.1-.03,2.19-.18,3.27h13.23c3.78-2.83,7.98-4.96,12.89-5.75,3.17-.51,6.73.19,10.12.31.91.03,1.17.72,1.14,1.55-.05,1.25-.88,1.4-1.96,1.34-1.24.34-2.14-.75-3.32-.99-5.32-1.12-10.02.18-14.43,3.23-.15.1-.3.2-.45.3h25.39c-.12-.11-.24-.23-.36-.37-1.17-1.41.53-2.19,1.07-2.34,3.49-1.01,6.2-3.55,9.57-4.71,2.18-.75,4.35-1.42,6.07-3.14.52-.52,1.42-1.22,2.38-.54.37.26.64.66.84.88-.36,1.56-1.46,1.88-2.62,2.34-5.02,1.96-10.32,3.4-14.23,7.46-.16.17-.32.31-.48.43h14.87c.15-.06.29-.13.43-.19,5.98-2.61,8.58-7.74,10.06-13.7.23-.9.3-1.88.99-2.63.55-.59,1.16-1.04,1.88-.45.55.45,1.35.84.66,1.96-2.86,4.65-4.18,10.21-8.6,13.95-.45.38-.92.74-1.39,1.07H-1.3c-.37-.42-.76-.83-1.09-1.28-.65-.9-1.5-1.78-.17-2.61,1.22-.77,1.45-.26,2.01,1.14.37.94-.07,1.82.31,2.76h30.03c.19-.07.44-.09.73-.06.15.02.29.04.42.06h9.08c.14-.02.3-.02.46,0,.26.02.54.09.88.19,1.94.29,3.89.16,5.84-.19,3.83-.69,7.68-2.25,11.62-3.25,1.02-.25,2-.91,2.85-1.71.65-.61,1.5-1.44,2.54-.78.48.31,1.26.72.96,1.51-.34.94-1.09,1.44-2.09,1.71-2.79.73-5.52,1.66-8.28,2.52h15.37c.92-1.71,1.35-3.67,1.46-5.74.05-1.13.53-2.03,1.57-2.06.81-.02,1.7.58,1.35,1.77.24.88-.23,1.57-.58,2.29-.6,1.26-1.26,2.49-1.89,3.73h11.9c.11-.05.22-.11.32-.16,3.66-1.66,7.53-3.02,10.68-5.72,1.15-.99,2.94-.34,3.05.87-.29,1.09-1,1.69-2.09,1.98-2.68.73-5.24,1.75-7.65,3.02h22.77c.22-.11.44-.22.66-.32,1-.49,1.46-.13,1.85.32h6.44c.06-.4.28-.81.52-1.24,4.87-8.69,10.82-16.58,17.66-23.8l.02-.02Zm-172.71,14.68c-.58.04-.96-.2-1.41-.41-3.79-1.77-7.77-2.55-11.93-1.97-.97.13-1.75.1-2.29-.64-.39-.52-.39-1.24.03-1.82.66-.9,1.71-.7,2.47-.47,4.25,1.21,8.56,1.85,12.97,1.92,1.14.02,2.27.5,2.14,1.88-.1,1.01-.8,1.77-1.98,1.51Zm70.85,3.51c-.03,1.55-.68,2.33-2.03,2.36-1.41.03-2.1-1.18-2.18-2.14-.09-1.1.99-2.13,2.14-2.07.99.05,2.34.43,2.07,1.85Zm40.6-8.94c-.25,1.06-1.24,1.41-2.02,1.46-8.51.59-16.48,3.38-24.58,5.7-2.22.64-4.39,1.33-6.28,2.18-1.19.05-1.87-.27-1.85-1.34.03-1.36.79-2.16,2.14-2.05,3.04.24,5.92-.41,8.71-1.49,5.66-2.21,11.48-3.72,17.52-4.48,1.12-.14,2.19-.88,3.21-1.47.87-.51,1.63-.67,2.42.06.43.39.89.77.74,1.43Zm6.83,7.96c-.11.71-.8,1.42-2.18,1.4-1.26-.03-2.03-.77-1.89-1.89.15-1.24.59-2.67,2.33-2.49,1.35.13,1.91,1.06,1.74,2.98Zm6.99-2.96c-1.75-.13-2.62-.8-2.49-2.16.12-1.2.97-2.23,2.16-2.16,1.13.06,2.15,1.12,2.09,2.27-.05,1.03-.6,2.26-1.76,2.04Zm14.14,5.78c-1.18-.03-2.28-.4-1.95-1.92-.16-1.44.43-2.06,1.81-1.97,1.23.08,2.02.65,2.06,1.89.04,1.24-.69,2.03-1.92,1.99Zm4.06-8.74c-1.09-.4-1.98-1.28-1.84-2.37.13-1.02.81-2.17,2.24-2.06,1.23.09,1.91.82,1.87,2.05-.05,1.37-.92,2.08-2.27,2.38Zm7.68,6.2c.05,1.57-1.19,2.02-2.07,1.96-1.07-.08-2.02-.8-1.87-2.32.13-1.41,1.22-1.89,2.11-1.82,1.04.09,2.21.77,1.84,2.18Zm-191.98-17.47v-.02s-8.32,0-8.32,0c0,0,0,.02,0,.02-2.25,7.16-3.08,14.56-3.95,21.97-.12,1.02-.23,2.05-.31,3.07h7.82c.43-4.33.04-8.77,1.3-12.98.95-3.18,1.38-6.54,2.97-9.52.44-.81.57-1.65.5-2.54Zm-10.77,0s0-.02,0-.02h-13.72s-.02.02-.03.02c-2.21,1.92-5.07,2.44-7.7,3.31-3.25,1.08-5.77,3.66-9.27,4.19-2.5.37-5.04-.7-7.51.27-.14.05-.39-.26-.62-.32-.86-.26-1.62-.77-1.22-1.71.36-.85,1.02-1.76,2.26-1.17,4.27,2.05,8.11.67,11.91-1.42,2.18-1.2,4.7-1.69,6.77-3.15.01,0,.02-.02.03-.02h-53.87s-.03.02-.04.02c-1.69.97-3.34,1.99-5.06,2.88-1.44.74-2.86,1.48-3.68,2.92-.31.53-.65.84-1.19,1.09-1.09.51-2.45.95-2.99-.22-.54-1.16.52-2.45,1.68-2.7,2.75-.61,4.71-2.4,6.83-3.98.01-.01.02-.02.03-.02h-21.55s.03.02.04.02c1.81,1.11,3.81,1.62,5.88,2.02.73.14,1.83.41,1.89,1.57.03.44.24,1.05-.39,1.24-.48.15-.86.82-1.52.32-3.1-2.35-7.14-2.83-10.27-5.15-.01,0-.02-.02-.03-.02h-14.2s.02.02.03.02c4.15,3.51,8.95,5.94,13.8,8.32,5.62,2.75,11.96,3.16,17.64,5.68,1.24.55,2.81-.25,3.97.75.54.46,1.64.75,1.04,1.82-.47.85-1.4,1.44-2.26.97-8.79-4.71-19.28-4.87-27.77-10.4-3.51-2.28-7.05-4.54-10.33-7.14-.01,0-.02-.02-.03-.02h-20.57s.01.02.02.02c.89,1.18.46,2.19-.68,2.73-1.27.6-1.83-.45-2.26-1.44-.18-.42-.33-.86-.49-1.29,0,0,0-.02-.01-.02h-8.32s0,.02,0,.02c.72,4.85,3.27,7.91,8.49,8.69,8.35,1.24,14.81,5.96,21.34,10.64,2.44,1.75,5.37,3.05,6.99,5.71h28.34c-2.8-1.2-5.85-1.82-8.87-2.6-8.19-2.12-16.33-4.27-23.17-9.94-4.21-3.49-8.58-7.13-14.13-8.67-.95-.26-1.64-1.17-1.31-2.31.22-.78,1.04-.85,1.71-1.07.85.32,1.54.81,2.27,1.31,6.78,4.61,13.12,9.91,20.34,13.79,6.4,3.44,13.66,4.56,20.61,6.49,2.53.7,4.81,2.05,7.27,3h18.24c.26-.11.58-.14.99-.08.44-.04.81-.03,1.12.08h6.09c-.19-.32-.3-.73-.35-1.21-.17-1.56.95-2.04,2-2.23,1.41-.24,1.74,1.14,2.29,2.1-.22.44-.4.94-.67,1.34h8.01c-.26-.05-.52-.1-.78-.16-.91-.18-2.27-.5-1.93-1.97.13-.56.27-1.54,1.17-1.41,1.02.02,1.71.44,2.33.93,2.06,1.66,4.36,2.56,7.04,2.53.26,0,.52.02.77.06h14.88c-.53-.39-.68-1.05-.37-1.89.91-2.53,1.37-5.1,1.04-7.09,0-2.09-.05-3.48.02-4.85.06-1.22.8-2.14,2-1.83.94.25,1.69.98,1.16,2.42-1.26,3.44-2.27,6.97-1.24,10.71.1.38,0,.81.02,1.22.03.56-.07,1.01-.31,1.3h16.42c.47-4.39.85-8.78,1.87-13.11.62-2.63.91-5.36,1.06-8.06.08-1.42,1.34-2.42,1.05-3.86Zm-75.86,9.48c6.12-1.74,11.42-5.55,17.7-6.96,2.03-.45,4.07-.71,6.11-1.02,1.65-.26,3.32,0,4.92-.91.7-.4,1.96-.52,2.72.34.54.61.48,1.37.01,2.02-.5.7-1.16,1.14-2.12.73-5.96-.57-11.69.61-17.13,2.96-3.69,1.59-7.69,2.67-10.75,5.54-.83.78-1.93.54-2.38-.4-.39-.81-.39-1.93.93-2.31Zm47.2,10.08c-.88.87-1.71.4-2.65.03-6.95-2.76-13.77-5.91-21.57-5.45-3.52.2-6.72,1.4-9.81,2.8-3.9,1.76-8.2,2.62-11.78,5.09-1.01.68-1.93.41-2.35-.53-.45-1.05.3-2.23,1.24-2.28,6.36-.4,11.26-4.74,17.19-6.21,2.65-.65,5.25-1.47,7.58-1.3,4.98-.14,8.93,2.02,13.12,3.23,2.44.71,4.78,1.75,7.42,1.74.91,0,1.94.35,2.3,1.43.22.65-.27,1.05-.68,1.45Zm20.26-11.57c-1.87,3.2-2.27,6.63-1.92,10.23.15,1.45-.32,2.63-1.61,3.5-1.08-.67-2.21-1.14-1.64-2.47,1.71-3.95,1.65-8.21,2.26-12.34.16-1.03.64-1.65,1.5-1.99.63-.24,1.02.29,1.45.67.96.84.38,1.69-.04,2.4Zm-139.08,2.18c-4.27-1.1-7.95-3.23-7.82-8.6.02-.52-.28-1.04-.44-1.56,0,0,0-.02,0-.02h-7.35s0,.02,0,.02c-.33,2.09,1.13,4.13.33,6.16-1.07,2.77-3.3,4.8-5.1,7.08-.6.77-1.94.8-2.35.16-.68-1.07-.03-2.16,1.09-2.75,3.13-1.66,4.27-4.34,4.09-7.75-.05-.97-.01-1.93-.01-2.9v-.02s-6.85,0-6.85,0c0,0,0,.02-.01.02-3.3,7.81-5.86,15.92-12.09,22.27-.87.89-1.7,1.82-2.5,2.77h9.75c2.42-2.47,5.36-4.32,9.18-5.22,2.16-.51,4.07-1.73,5.98-2.9,2.34-1.44,4.78-2.27,7.63-.92,1.68.8,3.57,1.34,5.58,1.18.88-.08,1.99.16,1.96,1.14-.1,1.99-1.79,2.53-3.46,1.47-3.25-2.07-6.59-2.95-10.32-1.23-4.11,1.9-8.36,3.5-12.39,5.55-.54.27-1.05.59-1.52.94h13.73c.12-.04.25-.04.37,0h18.2c.17-1.03.29-2.08.4-3.14.11-1.03.46-2.27,1.65-2.75.52-.2.84.37,1.17.71,1.07,1.1.23,2.1-.23,3.07-.33.69-.63,1.4-.9,2.11h6.55c.24-.35.6-.58,1.1-.58.84.03,1.47.23,1.89.58h10.37c-2.6-2.8-6.21-4.56-9.27-6.89-5.49-4.18-11.81-6.29-18.39-7.98Zm-27.86-10.16v-.02s-5.88,0-5.88,0v.02c-.03.39.09.89-.11,1.17-4.36,6.05-7.94,12.65-13.06,18.2-1.67,1.81-3.25,3.7-4.74,5.67h10.08c2.68-3.29,5.82-6.27,7.98-9.9,2.77-4.66,6.03-9.27,5.73-15.14Zm-10.58,4.37c.78-1.34,1.18-2.9,1.75-4.37,0,0,0-.02,0-.02h-7.83s0,.02-.01.02c-1.95,3.8-4.62,7.09-7.53,10.15-4.35,4.57-8,9.66-11.44,14.89h9.3c1.01-1.55,2.12-3.05,3.39-4.46,4.56-5.03,8.93-10.3,12.37-16.21Zm-12.99,1.81c1.69-1.92,3.27-3.9,4.45-6.17,0,0,0-.02.01-.02h-9.3s-.01.02-.02.02c-3.1,4.05-6.9,7.48-9.94,11.58-.88,1.19-1.45,2.48-2.11,3.75-.39.75-.99,1.12-1.62,1.2-.67.08-1.15-.61-1.38-1.2-.27-.69-.19-1.42.47-1.98,4.55-3.87,7.44-9.19,11.64-13.35l.02-.02h-10.29s-.01.02-.02.02c-1.8,2-3.52,4.04-4.56,6.61-.31.78-1.02,1.7-2.18,1.67-.56-.02-.93-.4-1.02-.88-.21-1.08-.06-2.06.94-2.79,1.66-1.21,3.13-2.62,3.9-4.61,0,0,0-.02.01-.02h-9.3s-.01.02-.02.02c-2.96,4.76-6.03,9.46-6.38,15.32-.05.87-.41,1.78-1.26,2.2-.68.33-1.17-.2-1.68-.66-.97-.87-.29-1.68.1-2.38.96-1.75,1.91-3.51,2.26-5.47.63-3.47,2.67-6.17,4.5-9.02,0,0,.01-.02.02-.02h-26.93s0,.02.01.02c1.65,3.24,3.87,6.1,5.93,9.09.23.33.57.57.85.87.91.96.78,1.9-.16,2.72-1.21,1.06-2.06-.22-2.23-.84-1.26-4.57-5.11-7.59-6.84-11.84,0,0,0-.02-.01-.02-.77-.16-1.32-.16-1.71.02-.19.09-.35.22-.47.39-.3.42-.38,1.1-.32,2.04.2,3.74.06,7.51.06,11.26.09-.04.18-.08.26-.11.36-.14.72-.27,1.03-.48.75-.53,1.49-.59,2.21-.03.6.48.56,1.22.3,1.78-.34.72-.89,1.35-1.86,1.3-.56-.03-1.12-.01-1.68,0h-.26s0,6.37,0,6.37c.09.02.18.04.26.06,1.49.38,1.97,1.23,1.56,2.47h19.64c.21-.17.42-.36.63-.55.77-.72,1.56-.52,2.42-.04.3.17.44.37.5.59h5.62c-.46-.32-.71-.82-.72-1.56-.03-1.41.97-1.86,2.18-1.98,1.58-.15,2.09,1.1,2.06,2.11-.01.51-.22,1.07-.65,1.44h16.98c.96-1.87,1.81-3.82,3.1-5.5,3.53-4.58,7.19-9.03,11.01-13.36Zm-55.78,17.77c-1.38-.03-1.91-.9-1.97-2.24-.08-1.59,1.2-1.68,2.22-2.21,1.01.51,2.16,1.09,2.13,2.33-.02,1.31-1.01,2.16-2.38,2.13Zm10.75-6.25c-.07,1.24-.86,1.93-2.09,1.84-1.11-.08-2.05-.51-1.78-1.98-.36-1.35.64-2.19,1.6-2.16,1.12.04,2.37.75,2.27,2.29Zm-.33-8.9c-1.5-.1-2.11-.93-2.12-2.48.15-1.16.79-2.04,2.15-1.9,1.2.13,2.23,1.04,2.17,2.16-.05,1.05-.61,2.32-2.2,2.22Zm17.13,7.74c-1.02-.11-2.13-.52-2.12-2.09.02-1.65,1.15-2.15,2.3-2.14,1.13,0,1.77.96,1.7,1.67-.09,1.73-.67,2.69-1.87,2.56Zm5.33,8.14c-.74-.22-1.9-.61-1.97-1.89-.07-1.23.82-2.1,2.03-2.19,1.26-.1,2.11.78,2.26,1.97.16,1.29-.67,2-2.31,2.11Z"/>
  <g>
    <path class="cls-5" d="m-25.47,19.03c-1.38-.94-2.8-1.84-4.26-2.66-.01,0-.02-.02-.03-.03l-1.5-.8h0c-8.1-4.26-17.32-6.67-27.1-6.67-.09,0-.16,0-.25,0h0c-1.65,0-3.29.07-4.91.22-.41.03-.82.07-1.23.12-.86.09-1.71.2-2.56.33h0c-1.37.21-2.73.47-4.06.78l-2.64.67c-1.15.32-2.28.67-3.39,1.05h0l-2.17.8c-1.98.78-3.91,1.65-5.78,2.63h-.01s-2.02,1.11-2.02,1.11h-.01c-3.6,2.08-6.96,4.51-10.02,7.28-.99.89-1.96,1.82-2.88,2.78-1.61,1.66-3.12,3.42-4.52,5.26l-1.44,1.98c-2.09,2.99-3.91,6.17-5.4,9.53,0,0,0,.01,0,.02-.32.72-.63,1.42-.92,2.15h0c-.45,1.12-.86,2.25-1.23,3.39-.43,1.3-.82,2.62-1.15,3.96-.83,3.27-1.38,6.65-1.62,10.11-.09,1.2-.13,2.4-.14,3.62,0,.18,0,.37,0,.56H0c0-.71-.01-1.42-.04-2.12-.1-2.95-.43-5.83-.95-8.65h0c-.15-.8-.32-1.61-.49-2.39h0c-.34-1.48-.74-2.94-1.19-4.37-.52-1.67-1.12-3.31-1.79-4.91-1.11-2.67-2.41-5.23-3.89-7.68-.59-.97-1.2-1.92-1.84-2.85-.76-1.12-1.57-2.21-2.42-3.27-.56-.71-1.13-1.4-1.73-2.08-2.04-2.34-4.26-4.52-6.64-6.5,0,0,0,0-.01,0-.22-.19-.43-.36-.65-.53-.64-.53-1.3-1.03-1.96-1.52l-1.87-1.33Z"/>
    <path class="cls-3" d="m-.04,65.13c.03.7.04,1.41.04,2.12h-2.42c-.03-.3-.03-.6,0-.91.08-.8.41-1.29,1.2-1.43.47-.08.87,0,1.18.22Z"/>
  </g>
  <g>
    <path class="cls-5" d="m91.3,19.03c-1.38-.94-2.8-1.84-4.26-2.66-.01,0-.02-.02-.03-.03l-1.5-.8h0c-8.1-4.26-17.32-6.67-27.1-6.67-.09,0-.16,0-.25,0h0c-1.65,0-3.29.07-4.91.22-.41.03-.82.07-1.23.12-.86.09-1.71.2-2.56.33h0c-1.37.21-2.73.47-4.06.78l-2.64.67c-1.15.32-2.28.67-3.39,1.05h0l-2.17.8c-1.98.78-3.91,1.65-5.78,2.63h-.01s-2.02,1.11-2.02,1.11h-.01c-3.6,2.08-6.96,4.51-10.02,7.28-.99.89-1.96,1.82-2.88,2.78-1.61,1.66-3.12,3.42-4.52,5.26l-1.44,1.98c-2.09,2.99-3.91,6.17-5.4,9.53,0,0,0,.01,0,.02-.32.72-.63,1.42-.92,2.15h0c-.45,1.12-.86,2.25-1.23,3.39-.43,1.3-.82,2.62-1.15,3.96-.83,3.27-1.38,6.65-1.62,10.11-.09,1.2-.13,2.4-.14,3.62,0,.18,0,.37,0,.56h116.77c0-.71-.01-1.42-.04-2.12-.1-2.95-.43-5.83-.95-8.65h0c-.15-.8-.32-1.61-.49-2.39h0c-.34-1.48-.74-2.94-1.19-4.37-.52-1.67-1.12-3.31-1.79-4.91-1.11-2.67-2.41-5.23-3.89-7.68-.59-.97-1.2-1.92-1.84-2.85-.76-1.12-1.57-2.21-2.42-3.27-.56-.71-1.13-1.4-1.73-2.08-2.04-2.34-4.26-4.52-6.64-6.5,0,0,0,0-.01,0-.22-.19-.43-.36-.65-.53-.64-.53-1.3-1.03-1.96-1.52l-1.87-1.33Z"/>
    <path class="cls-3" d="m15.83,41.42c-.07,1.21-1.14,1.96-2.07,1.44-2.01-1.12-3.39-3.03-5.14-4.48-.72-.6-.2-1.56.54-2.19.67-.57,1.22-.45,1.82.11,1.39,1.32,2.81,2.61,4.21,3.91.4.37.82.73.64,1.21Z"/>
    <path class="cls-3" d="m55.87,48.78c-.38-.03-.6.01-.69-.07-1.71-1.59-3.46-3.14-5.05-4.84-.5-.53-.19-1.36.45-1.92.62-.54,1.25-.37,1.74.03,1.64,1.36,3.35,2.64,4.75,4.27.37.44.52.99.12,1.57-.38.56-.76,1.04-1.31.95Z"/>
    <path class="cls-2" d="m2.89,63.3v-.02l.03.03h0"/>
    <path class="cls-3" d="m4.8,67.25c-.18-.2-.34-.45-.49-.74-.56-1.03-.51-2.32-1.4-3.2h0c0-.82-.72-1.38-.7-2.23.01-.96.41-1.55,1.27-1.76.78-.2,1.3.22,1.67.95.82,1.65,1.28,3.43,2.12,5.07.27.52.48,1.34.01,1.9h-2.48Z"/>
    <path class="cls-3" d="m50.09,27.14c-.12-.34-.18-.72-.36-1.03-.59-1.01-.35-1.96.56-2.45.95-.52,1.86.14,2.23.99.79,1.82,1.46,3.69,2.27,5.5.35.79-.18,1.47-.99,1.86-.89.43-1.42-.03-1.77-.71-.7-1.37-1.31-2.79-1.96-4.19l.03.03Z"/>
    <path class="cls-3" d="m62.16,57.45c-.52.14-.96-.12-1.22-.37-1.29-1.26-2.97-2.03-4.2-3.39-.78-.86-.7-1.69-.15-2.43.63-.84,1.4-.59,2.16.07,1.44,1.24,2.95,2.4,4.43,3.59.6.48.59,1.16.34,1.75-.23.54-.7.98-1.37.78Z"/>
    <path class="cls-3" d="m20.84,51.66c-.2,0-.26,0-.31,0-1.12-.05-5.66-3.63-5.93-4.67-.18-.71.2-1.24.67-1.67.41-.38.94-.38,1.4-.04,1.83,1.35,3.72,2.61,5.29,4.28.41.44.3.79.09,1.29-.28.65-.67.93-1.21.81Z"/>
    <path class="cls-3" d="m98.85,53.09c-.01,1.2-1.22,1.91-2.21,1.12-1.74-1.37-3.36-2.92-4.97-4.45-.63-.6-.22-1.37.24-1.84.42-.44,1.15-.78,1.73-.3,1.6,1.29,3.16,2.64,4.68,4.03.36.33.61.86.54,1.44Z"/>
    <path class="cls-3" d="m97.56,58.03c.06-.64.48-.95.97-1.2.46-.24.89-.56,1.44-.04,1.3,1.24,2.81,2.23,4.23,3.33.72.56,1.7,1.29.68,2.49-.99,1.16-1.91.68-2.73-.11-1.15-1.11-2.69-1.73-3.71-3.01-.37-.47-.66-.94-.87-1.47Z"/>
    <path class="cls-3" d="m69.45,14.43c-.04,1.15-1.45,1.96-2.29,1.36-1.59-1.12-3.13-2.31-4.63-3.53-.85-.69-1-1.52-.19-2.42.79-.88,1.66-.53,2.24.04,1.29,1.28,2.88,2.15,4.22,3.34.43.38.6.81.66,1.21Z"/>
    <path class="cls-3" d="m91.77,33.28c-.22-.7-.49-1.38-.64-2.1-.18-.83.11-1.53.97-1.77.8-.23,1.53.05,1.88.85.75,1.73,1.43,3.49,2.14,5.24.37.91.28,1.79-.67,2.17-.97.4-1.63-.08-2.18-1.03-.62-1.09-.56-2.47-1.52-3.39l.03.03Z"/>
    <path class="cls-3" d="m77.85,42.73c0-.81.05-1.62-.01-2.42-.07-.99.55-1.67,1.3-1.75.72-.08,1.5.19,1.7,1.39.32,1.93-.04,3.85.17,5.77.08.71-.69,1.36-1.65,1.42-1.13.07-1.37-.74-1.47-1.52-.12-.95-.03-1.93-.03-2.9,0,0,0,0,0,0Z"/>
    <path class="cls-3" d="m45.37,33.47c-.71,2.02-1.34,4.07-2.15,6.05-.35.86-1.35.63-2.01.4-.62-.21-.97-.96-.78-1.59.55-1.8,1.24-3.55,1.87-5.32.33-.92,1.03-1.23,1.9-1.02.68.16,1.08.67,1.16,1.47Z"/>
    <path class="cls-3" d="m51.66,36.5c.91-.09,1.47.31,1.58.97.11.66.38,1.51-.61,1.92-1.79.74-3.49,1.69-5.37,2.21-.8.22-1.46-.14-1.65-.88-.16-.61-.42-1.55.39-1.88,1.8-.74,3.59-1.48,5.32-2.35.13-.06.32,0,.33,0Z"/>
    <path class="cls-3" d="m10.47,33.9c.19-.09.38-.18.56-.28.63-.32,1.13-.9.88-1.7l-1.44,1.98Z"/>
    <path class="cls-3" d="m86.73,39.35c-.54,1.87-1.06,3.95-2,5.87-.38.77-1.11.77-1.93.35-1.19-.6-.85-1.51-.55-2.31.53-1.42,1.09-2.83,1.42-4.32.02-.1,0-.23.05-.31.42-.64.96-1.19,1.77-1.07.85.12,1.16.83,1.23,1.78Z"/>
    <path class="cls-3" d="m94.97,44.23c-.04.48-.62.97-1.41,1.28-1.41.56-2.89,1.01-4.23,1.71-1.17.6-1.84-.04-2.25-.8-.49-.9.21-1.78.96-2.07,1.62-.62,3.23-1.24,4.82-1.95,1.04-.47,2.15.34,2.11,1.83Z"/>
    <path class="cls-3" d="m38.5,66.78c.38.16.78.27,1.08.47h-1.92c.28-.15.56-.31.84-.47Z"/>
    <path class="cls-3" d="m87.58,32.65c-.21.91-.9,1.46-1.62,1.86-1.33.75-2.75,1.32-4.09,2.05-.8.44-1.31.14-1.74-.45-.45-.61-.59-1.3.1-1.84,1.71-1.33,3.54-2.5,5.66-3.03.92-.23,1.51.44,1.69,1.4Z"/>
    <path class="cls-3" d="m44.39,25.43c.74-.03,1.21.39,1.41.95.18.53.24,1.17-.33,1.62-1.62,1.29-3.55,2.05-5.39,2.95-.67.33-1.21-.2-1.6-.76-.36-.52-.48-1.17,0-1.57,1.75-1.45,3.82-2.34,5.9-3.18Z"/>
    <path class="cls-3" d="m39.4,37.2c0,.86,0,1.72,0,2.58.01,1.08-.52,1.54-1.58,1.55-1.11,0-1.33-.67-1.33-1.57,0-1.77,0-3.55,0-5.32,0-.93.44-1.54,1.35-1.56.98-.02,1.6.48,1.56,1.58-.03.91,0,1.83,0,2.74Z"/>
    <path class="cls-3" d="m103.95,40.56c.24-.25.48-.01.67.12,1.65,1.13,3.22,2.34,4.24,4.12.36.63.34,1.25-.24,1.64-.57.38-1.27.9-1.97.23-1.36-1.31-2.68-2.65-4-3.99-.39-.4-.39-.94-.07-1.32.33-.38.58-1.06,1.37-.8Z"/>
    <path class="cls-3" d="m20.75,29.02c.55.07.93-.05,1.26.25,1.29,1.19,2.63,2.33,3.71,3.74.58.76.43,1.51-.3,2.05-.62.45-1.23.68-1.95-.09-1.09-1.16-2.15-2.36-3.49-3.29-.52-.36-.86-1.14-.49-1.86.28-.55.77-.9,1.27-.79Z"/>
    <path class="cls-3" d="m67.51,39.51c.07.98-.59,1.35-1.29,1.63-.64.26-.97-.16-1.37-.62-.84-.95-1.67-1.91-2.78-2.61-.89-.57-1.55-1.42-.71-2.53.71-.95,1.73-.89,2.79.15.94.92,1.85,1.86,2.79,2.78.36.35.68.68.58,1.19Z"/>
    <path class="cls-3" d="m40.63,19.36c.64,0,1.29.06,1.93-.01,1.18-.14,1.8.66,1.91,1.51.13.98-.72,1.64-1.7,1.71-1.44.1-2.9.08-4.34.01-.97-.04-1.64-.65-1.57-1.63.06-.92.68-1.53,1.68-1.58.7-.03,1.39,0,2.09,0Z"/>
    <path class="cls-3" d="m24.92,47.09c.25.08.42.09.55.18,1.41.92,2.84,1.81,4.21,2.79.79.56.93,1.37.35,2.2-.49.71-1.11.89-1.88.39-1.32-.85-2.67-1.67-4-2.52-.78-.5-.66-1.3-.51-2.03.14-.68.87-.68,1.27-1Z"/>
    <path class="cls-3" d="m64.94,54.68c0-1.22,1.38-2.06,2.46-1.42,1.35.8,2.63,1.72,3.94,2.59.83.55.83,1.26.35,2.02-.45.71-1.16.97-1.87.55-1.44-.84-2.83-1.78-4.21-2.72-.33-.22-.72-.51-.67-1.02Z"/>
    <path class="cls-3" d="m106.61,60.34c-.05-1.28.81-1.87,1.99-1.36,1.55.68,2.9,1.68,4.27,2.66.69.49.71,1.26.39,1.87-.31.58-.91,1.12-1.7.75-1.62-.75-3.11-1.74-4.53-2.8-.27-.2-.52-.68-.41-1.13Z"/>
    <path class="cls-3" d="m82.15,25.18c.75,0,1.5-.06,2.24.02.92.1,1.63.52,1.54,1.62-.09,1.05-1.01,1.64-1.72,1.5-1.34-.26-2.57.27-3.87.11-1.2-.14-1.86-.65-1.83-1.88.04-1.22.86-1.43,1.87-1.39.59.03,1.18,0,1.76,0Z"/>
    <path class="cls-3" d="m77.53,15.31c.01,1.58-.78,2.17-2.04,1.51-1.44-.76-2.82-1.64-4.14-2.59-.71-.52-.76-1.34-.23-2.11.56-.82,1.22-.78,2-.28,1.28.82,2.59,1.6,3.89,2.39.49.29.6.72.52,1.09Z"/>
    <path class="cls-3" d="m73.01,20.65c.2,1.04-.7,1.43-1.36,1.55-1.24.22-2.45.54-3.64.92-1.09.35-2.01,0-2.32-1.03-.32-1.1.52-1.76,1.49-2.05,1.35-.39,2.72-.77,4.1-.93.92-.11,1.8.25,1.73,1.54Z"/>
    <path class="cls-3" d="m65.63,60.6c.78.06,1.43.15,1.56,1.09.11.81-.06,1.55-.87,1.87-1.56.6-3.25.72-4.84,1.25-.68.22-1.4-.48-1.57-1.27-.18-.82.33-1.53,1.01-1.76,1.54-.5,3.14-.8,4.71-1.18Z"/>
    <path class="cls-3" d="m23.89,54.9c1.03-.06,1.74.37,1.88,1.22.12.73-.2,1.48-1.07,1.72-1.61.43-3.22.91-4.86,1.2-.52.09-1.24-.24-1.43-1.01-.23-.97.33-1.72,1.02-1.97,1.47-.54,3.04-.8,4.45-1.14Z"/>
    <path class="cls-3" d="m29.33,16.6s0,0,.01,0c.42-.1.84-.23,1.23-.43.36-.18.63-.41.79-.69h0l-2.04,1.12Z"/>
    <path class="cls-3" d="m108.74,67.25h-5.13c1.13-.3,2.27-.47,3.39-.77.78-.05,1.52.09,1.74.77Z"/>
    <path class="cls-3" d="m74.4,66.84h4.27c.52,0,.89.14,1.12.41h-6.75c.32-.31.82-.4,1.36-.41Z"/>
    <path class="cls-3" d="m34.73,63.99c-.69,0-1.38-.02-2.07,0-.99.04-1.61-.58-1.56-1.39.04-.71.49-1.56,1.49-1.58,1.54-.03,3.08-.04,4.61,0,.89.03,1.54.58,1.51,1.47-.03.88-.68,1.38-1.58,1.41-.8.03-1.6,0-2.4,0v.06Z"/>
    <path class="cls-3" d="m46.85,46.74c-.14,1.15-.15,2.33-.44,3.44-.21.78-.66,1.67-1.78,1.44-.96-.2-1.36-.87-1.35-1.84.02-1.33.38-2.61.42-3.94.02-.62.55-1.5,1.63-1.3,1.25.24,1.6,1.05,1.52,2.19Z"/>
    <path class="cls-3" d="m5.06,43.45c-.05.41-.12.83-.23,1.24-.12.47-.37.76-.69.91.29-.73.59-1.44.92-2.15Z"/>
    <path class="cls-3" d="m52,9.22c-.26.55-.76.96-1.66.78-.43-.08-.72-.24-.9-.45.84-.13,1.7-.24,2.56-.33Z"/>
    <path class="cls-3" d="m88.19,53.3c.19.89-.2,1.85-.32,2.84-.11.9-.75,1.31-1.53,1.29-.73-.02-1.26-.57-1.34-1.31-.18-1.64,0-3.29.38-4.88.14-.62.81-1.07,1.45-.99.67.09,1.31.5,1.37,1.32.04.53,0,1.07,0,1.74Z"/>
    <path class="cls-3" d="m24.15,42.84c.25-1.28.38-2.6.79-3.82.26-.78,1.01-1.59,1.97-1.15.79.36,1.36,1.11,1.01,2.19-.32.99-.6,2.01-.78,3.03-.17,1.02-.66,1.76-1.68,1.74-1.21-.03-1.34-1-1.31-1.99Z"/>
    <path class="cls-3" d="m69.51,45.32c-.3,1.37-.59,2.75-.91,4.12-.23.95-1.01,1.16-1.8,1-.79-.16-1.38-.74-1.2-1.61.29-1.43.7-2.83,1.08-4.23.24-.86.86-1.2,1.71-.99.86.22,1.16.85,1.12,1.71Z"/>
    <path class="cls-3" d="m38.18,48.22c-.9.08-1.44-.42-1.52-1.15-.08-.72-.07-1.59.94-1.86,1.16-.32,2.38-.51,3.44-1.03,1.22-.6,1.75.17,2.15.91.48.9-.31,1.63-.98,1.91-1.28.55-2.68.83-4.02,1.23Z"/>
    <path class="cls-3" d="m84.66,51.51c.09,1.23-1.17,1.45-2.11,1.64-1.33.26-2.76,1.63-4.08.19-.74-.8-.4-1.8.56-2.25,1.22-.56,2.52-1.04,3.84-1.3.91-.18,1.79.22,1.8,1.72Z"/>
    <path class="cls-3" d="m60.98,22.9c1.17,0,1.71.61,1.94,1.28.21.6-.2,1.27-.78,1.6-1.14.65-2.37,1.09-3.46,1.86-.65.45-1.36,0-1.87-.45-.52-.46-.3-1.04.02-1.58,1.01-1.69,2.96-1.8,4.16-2.69Z"/>
    <path class="cls-3" d="m56.95,65.18c.55.69.21,1.53-.26,1.86-.1.07-.2.14-.3.2h-5.52c.09-.28.28-.53.58-.76,1.09-.85,2.35-1.37,3.61-1.91.81-.35,1.4,0,1.88.61Z"/>
    <path class="cls-3" d="m107.19,54.39c.25-1.28.37-2.55.78-3.73.27-.78.95-1.57,1.97-1.19.92.33,1.32,1.02.93,2.1-.35.98-.59,2.03-.69,3.06-.1,1.17-.65,1.58-1.75,1.57-1.36-.02-1.03-1.06-1.25-1.79Z"/>
    <path class="cls-3" d="m13.63,58.8c1.15-.11,1.64.29,1.84.96.29.99-.28,1.77-1.07,2.09-.98.4-1.93.83-2.79,1.44-.77.55-1.46.27-1.98-.28-.54-.57-.43-1.35.05-1.9,1.14-1.3,2.78-1.77,3.95-2.31Z"/>
    <path class="cls-3" d="m102.42,28.92c.6.68,1.17,1.38,1.73,2.08-.05.06-.11.11-.18.17-1.33.96-2.81,1.63-3.99,2.04-.88.05-1.32.07-1.57-.53-.22-.53-.36-1.01.06-1.47,1.08-1.17,2.51-1.77,3.95-2.3Z"/>
    <path class="cls-3" d="m45.37,10.33s.06.05.08.08c.82.99,2.21,1.56,2.37,2.74-.07,1.48-1.25,2.15-2.22,1.57-.96-.58-1.79-1.34-2.51-2.2-.41-.49-.53-1.03-.36-1.52l2.64-.67Z"/>
    <path class="cls-3" d="m41.99,54.83c-.01,1.54-.94,2.1-2.22,1.34-1.06-.63-1.86-1.58-2.61-2.55-.6-.77-.26-1.34.38-1.9.65-.56,1.23-.57,1.81.04.55.58,1.16,1.08,1.83,1.53.53.36.99.85.81,1.53Z"/>
    <path class="cls-3" d="m83.66,60.43c.05,1.31-1.19,2.15-2.14,1.56-.89-.56-1.75-1.22-2.48-1.96-.77-.78-.79-1.82.02-2.56.85-.79,1.71-.33,2.32.46.72.94,2.06,1.35,2.29,2.5Z"/>
    <path class="cls-3" d="m35.23,28.86c-.09,1.29-.9,1.79-2.06,1.23-1.45-.7-1.98-2.11-2.44-3.48-.22-.65.17-1.43.86-1.69.66-.26,1.47-.15,1.8.59.53,1.17,1.86,1.9,1.84,3.35Z"/>
    <path class="cls-3" d="m87,16.34s.02.02.03.03c.61.59,1.17,1.24,1.92,1.69.63.37.68,1,.35,1.67-.28.57-.55,1.05-1.23.92-1.1,0-3.65-2.13-3.75-3.14-.07-.76.11-1.39.88-1.84.1-.06.2-.11.29-.13h0l1.5.8Z"/>
    <path class="cls-3" d="m76.25,63.09c-.15.78-.13,1.78-1.53,1.83-1.33.05-1.62-.75-1.71-1.8-.06-.68-.11-1.35-.23-2.03-.16-.9.34-1.83,1.4-1.97.99-.13,1.69.48,1.69,1.46,0,.83.4,1.55.38,2.51Z"/>
    <path class="cls-3" d="m31.23,42.65c.96-.07,1.54-.06,1.64.52.12.65.29,1.36-.31,1.95-.87.86-1.85,1.53-2.96,2.05-.73.35-1.26.09-1.65-.4-.33-.42-.67-.93-.18-1.54,1.04-1.3,2.44-2.02,3.47-2.57Z"/>
    <path class="cls-3" d="m115.28,54.08h0c.18.79.34,1.59.49,2.39h0c-.78,1.13-2,1.79-3.26,2.24-1.06.38-1.6-.51-1.92-1.42.18-.61.59-1.11,1.1-1.5.75-.57,1.52-1.12,2.3-1.65.45-.32.87-.31,1.28-.05Z"/>
    <path class="cls-3" d="m49.02,48.7c1.4.58,2.82,1.18,3.82,2.39.45.55-.12,1.1-.41,1.58-.3.5-.82.8-1.38.57-1.22-.51-2.41-1.11-3.3-2.14-.45-.52-.38-1.14-.11-1.65.25-.47.7-.83,1.38-.75Z"/>
    <path class="cls-3" d="m72.36,32.69c0-1.11.07-1.81.79-1.98.82-.19,1.59.1,2.08.83.47.7.8,1.49,1.3,2.15.6.78.34,1.31-.23,1.95-.61.69-1.21.57-1.82.15-1.24-.86-1.69-2.21-2.13-3.09Z"/>
    <path class="cls-3" d="m116.73,65.13c.03.7.04,1.41.04,2.12h-2.42c-.03-.3-.03-.6,0-.91.08-.8.41-1.29,1.2-1.43.47-.08.87,0,1.18.22Z"/>
    <path class="cls-3" d="m11.3,45.91c-.02,1.08-1.3,1.95-2.15,1.42-.72-.46-1.52-.76-2.19-1.24-.72-.51-1.51-1.19-.9-2.23.57-.97,1.43-1.22,2.44-.57.75.49,1.47,1.02,2.24,1.48.5.3.61.71.56,1.14Z"/>
    <path class="cls-3" d="m27.75,67.1s.07.09.1.15h-2.69c.54-.99,1.89-1.11,2.59-.15Z"/>
    <path class="cls-3" d="m39.32,12.05h0c.36.16.62.49.69.88.17.93.28,1.88.34,2.82.08,1.09-.36,1.91-1.53,1.97-1.17.07-1.44-.92-1.67-1.79-.11-.45-.02-.96-.02-1.54.03-.47-.19-1.01.01-1.53l2.17-.8Z"/>
    <path class="cls-3" d="m78.53,19.23c-.06-.81.32-1.36,1.12-1.46.66-.08,1.27-.14,1.71.72.61,1.22.27,2.5.48,3.74.09.54-.49,1.29-1.35,1.32-.87.03-1.45-.46-1.62-1.23-.21-1.01-.24-2.06-.35-3.1Z"/>
    <path class="cls-3" d="m69.14,51.46c.16-.37.23-.84.76-1.17.76-.47,1.42-1.1,2.11-1.67.8-.66,1.52-.49,2.2.2.76.78.42,1.39-.23,2.04-.75.76-1.57,1.42-2.53,1.87-1.25.58-2.36,0-2.31-1.27Z"/>
    <path class="cls-3" d="m58.13,8.88s0,0,0,0c.49.4.51,1.01.37,1.57-.18.72-.66,1.21-1.88,1.14-.98-.3-2.17-.99-3.12-1.95-.16-.16-.25-.34-.28-.54,1.62-.15,3.26-.22,4.91-.22Z"/>
    <path class="cls-3" d="m34.55,56.61c.02.95.16,1.81-.72,2.41-.71.48-2.09.17-2.13-.64-.05-1.17-.49-2.28-.4-3.48.08-1,.74-1.39,1.47-1.54.77-.16,1.23.49,1.43,1.17.2.7.54,1.4.35,2.07Z"/>
    <path class="cls-3" d="m19.54,39.05c1.83.52,1.36,2.52,2.02,3.82.43.86-.32,1.45-1.13,1.78-.1.04-.17.15-.27.17-.92.13-2-1.42-2.37-3.5-.19-1.04.14-1.88,1.24-2.24.1-.03.21-.02.51-.03Z"/>
    <path class="cls-3" d="m90.59,54.56c1.45.02,3.78,1.91,3.74,3.01-.04,1.14-.59,1.53-1.73,1.3-1.24-.26-2.13-1.09-3.11-1.75-.64-.43-.39-1.18-.22-1.72.17-.55.68-.95,1.33-.84Z"/>
    <path class="cls-3" d="m12.58,56.43c-1.15.19-1.68-.22-1.88-.86-.19-.6-.18-1.34.5-1.7,1.06-.56,2.14-1.11,3.26-1.52.76-.28,1.13.5,1.51.96.35.43.24.96-.16,1.44-.95,1.14-2.42,1.14-3.23,1.68Z"/>
    <path class="cls-3" d="m62.99,48.69c.14.9-.31,1.51-1.18,1.75-.85.23-1.4-.34-1.69-1-.42-.95-.76-1.95-.96-2.96-.15-.8.59-1.25,1.19-1.52.6-.28,1.38-.02,1.63.58.41,1,1.11,1.94,1.01,3.16Z"/>
    <path class="cls-3" d="m2.92,49c.69-.04,1.15.26,1.41,1.02.29.88.45,1.81.65,2.72.16.7-.33,1.5-1.23,1.74-.89.24-1.32-.31-1.73-.96-.11-.18-.19-.36-.25-.55.33-1.34.72-2.66,1.15-3.96Z"/>
    <path class="cls-3" d="m52.33,60.6c-.09-.61.17-1.01.82-1.28.77-.31,1.51-.69,2.28-1.01.95-.39,1.65-.18,1.96.65.3.79.19,1.67-.75,2.14-.75.38-1.47.83-2.25,1.11-1.22.44-2.08-.26-2.07-1.62Z"/>
    <path class="cls-3" d="m112.3,44.81c.67,1.6,1.27,3.24,1.79,4.91-.04,0-.08,0-.12,0-1.19-.07-3.16-2.2-3.16-3.43-.12-.59.26-1.03.73-1.25.24-.11.51-.2.76-.21Z"/>
    <path class="cls-3" d="m63.31,18.3c.04.54-.25.8-.7,1.1-.84.57-1.81.78-2.66,1.29-.88.52-1.38-.03-1.79-.65-.48-.74-.33-1.51.41-1.97.88-.54,1.78-1.1,2.83-1.32,1.12-.23,1.96.43,1.91,1.55Z"/>
    <path class="cls-3" d="m42.98,56.46c-.21-.9.13-1.67,1.06-1.77.88-.1,1.67.41,1.8,1.38.17,1.25,1.37,2.52.05,3.79-.71.68-1.9.57-2.2-.34-.32-.98-.92-1.92-.71-3.06Z"/>
    <path class="cls-3" d="m102.27,50.68c.82,0,1.21.44,1.42,1,.36.97.66,1.96.96,2.96.26.87-.57,1.05-1.01,1.37-.52.38-1.17.25-1.53-.32-.67-1.06-1.18-2.2-1.31-3.47-.12-1.2.81-1.3,1.48-1.54Z"/>
    <path class="cls-3" d="m50.12,13.23c.67-.15,1.13.19,1.35.9.28.89.61,1.78.82,2.69.23.98-.52,1.5-1.21,1.84-.66.32-1.24-.14-1.58-.74-.67-1.18-.83-2.48-.72-3.82.06-.82.62-.89,1.35-.87Z"/>
    <path class="cls-3" d="m85.65,60.38c.23.01.29,0,.34.02.81.27,1.52.81,1.51,1.65-.01,1.14,1.54,2.3-.04,3.45-.66.48-1.27.53-1.91.12-.78-.5-1.41-4.02-.83-4.7.25-.29.7-.42.93-.54Z"/>
    <path class="cls-3" d="m97.34,67.25c.51-.22.99-.47,1.43-.81.32-.24.47-.57.41-.93-.05-1.01-1.08-1.86-1.98-1.53-.98.36-1.94.83-2.79,1.41-.48.33-.98.99-.6,1.63.04.07.09.15.13.23h3.39Z"/>
    <path class="cls-3" d="m16.43,26.66c.39.26.94.37,1.46.45.21.03.43,0,.65,0,1.35.09,2.67-.23,2.7-1.75.02-1.32-.94-1.48-1.92-1.49l-2.88,2.78Z"/>
    <path class="cls-3" d="m31.08,38.09c-.98.03-3.18-1.87-3.3-2.85-.11-.88.34-1.34,1.09-1.73.78-.41,1.18-.03,1.51.51.36.59,1.01.77,1.47,1.2.64.6.76,1.28.47,2.13-.23.67-.66.76-1.23.73Z"/>
    <path class="cls-3" d="m69.3,40.37c-.01-.58.47-.89.85-1.15.62-.44,1.28-.1,1.74.31.7.63,1.32,1.36,1.89,2.12.37.49.32,1.11,0,1.64-.4.64-1.04.73-1.7.59-.88-.19-2.7-2.57-2.77-3.51Z"/>
    <path class="cls-3" d="m93.68,22.83c.1.82-.19,1.47-1.05,1.67-.91.21-1.48-.49-1.73-1.12-.3-.76-.5-1.59-.72-2.39-.21-.76.12-1.56.83-1.87.8-.35,1.63-.06,1.99.81.37.91.75,1.84.68,2.9Z"/>
    <path class="cls-3" d="m13.79,65.38c.78.11,1.77.35,1.69,1.52,0,.13-.03.24-.05.35h-5.33c-.18-.82.16-1.43.93-1.65.88-.24,1.86-.33,2.77-.22Z"/>
    <path class="cls-3" d="m60.06,29.7c.48,0,.97-.04,1.45.01.65.07,1.04.49,1.15,1.13.1.62,0,1.3-.61,1.52-1.22.43-2.51.81-3.78.14-.71-.37-.93-1.03-.74-1.77.18-.68.65-1.07,1.41-1.04.37.02.75,0,1.13,0h0Z"/>
    <path class="cls-3" d="m55.57,41.11c.43-1.7,2.3-.94,3.52-1.33.84-.27,1.44.59,1.61,1.4.22,1.04-1.11,1.9-3.06,2.04-1.24.09-2.1-.64-2.07-2.11Z"/>
    <path class="cls-3" d="m16.6,34.22c.43,0,.86-.04,1.28,0,.66.07,1.05.48,1.16,1.12.11.61.03,1.34-.59,1.51-1.03.29-2.11.79-3.19.45-.65-.21-1.57-.58-1.32-1.51.22-.85.67-1.72,1.86-1.59.26.03.53,0,.8,0,0,0,0,0,0,0Z"/>
    <path class="cls-3" d="m101.59,35.51c.38,0,.77-.07,1.13.02.75.18,1.75.25,1.6,1.35-.12.89-.72,1.52-1.74,1.53-.59,0-1.19-.05-1.77.01-1.34.14-1.76-.87-1.78-1.77-.02-.89.88-1.18,1.76-1.15.27.01.54,0,.81,0Z"/>
    <path class="cls-3" d="m47.48,56.74c.07-1.27,1.07-1.5,2.01-1.86.96-.36,1.88-.5,2.61.32.42.46.38,1.15,0,1.63-.88,1.1-2.23,1.37-3.51,1.45-.45.03-1.18-.7-1.11-1.54Z"/>
    <path class="cls-3" d="m18.93,62.73c.85-.04,3.01,1.95,2.99,2.87-.01,1.01-.65,1.69-1.61,1.82-.85.11-2.51-1.89-2.55-2.91-.04-.89.53-1.75,1.17-1.78Z"/>
    <path class="cls-3" d="m10.65,50.32c.02,1.06-1.77,2.34-3.23,2.3-.99-.03-1.38-.76-1.46-1.54-.1-.95,1.91-2.29,3.32-2.32.85-.02,1.35.55,1.37,1.56Z"/>
    <path class="cls-3" d="m46.2,62.71c.28-.62.44-1.51,1.38-1.63.91-.11,2.74,1.96,2.81,3.06.07,1.04-.74,1.41-1.47,1.62-.75.21-2.7-2.01-2.72-3.05Z"/>
    <path class="cls-3" d="m53.29,15.18c.28-1.36,1.53-1.49,2.53-1.98.91-.45,1.47,0,2.05.57.65.65.14,1.35-.24,1.67-.94.79-1.97,1.61-3.36,1.18-.65-.2-1.15-.59-.98-1.44Z"/>
    <path class="cls-3" d="m53.56,19.68c.88.02,2.78,2.24,2.6,3.07-.17.81-.71,1.45-1.66,1.44-.83-.01-2.62-2.16-2.48-3.02.15-.87.46-1.7,1.54-1.5Z"/>
    <path class="cls-3" d="m100.15,45.64c1.15-.01,1.97.15,1.93,1.47-.05,1.62-1.34,1.53-2.39,1.62-1.09.09-2.51.31-2.42-1.44.1-2.08,1.87-1.24,2.88-1.65Z"/>
    <path class="cls-3" d="m23.57,23.17c-.04-1.18.31-1.82,1.32-1.86.83-.04,2.97,2.24,2.76,3.08-.19.73-.6,1.49-1.64,1.44-1.02-.04-2.43-1.68-2.43-2.66Z"/>
    <path class="cls-3" d="m89.29,66.88c.22-.04.52.11.86.37h-1.89c.28-.22.67-.3,1.03-.37Z"/>
    <path class="cls-3" d="m106.57,34.28c.64.93,1.25,1.88,1.84,2.85-.08-.06-.17-.14-.26-.22-.82-.76-1.55-1.56-1.59-2.64Z"/>
    <path class="cls-3" d="m66.4,27.11c1.12.07,2.83,2.02,2.71,3.03-.1.89-.62,1.45-1.54,1.46-.78,0-2.76-2.27-2.61-3.07.14-.78.43-1.6,1.44-1.43Z"/>
    <path class="cls-3" d="m4.83,56.89c.08-.69.19-1.44,1.34-1.37,1.13.07,2.56,1.59,2.54,2.81-.02.99-.5,1.63-1.48,1.7-.92.07-2.37-1.83-2.39-3.14Z"/>
    <path class="cls-3" d="m95.12,21.88c.22.17.43.34.65.53-.28-.1-.51-.28-.65-.53Z"/>
    <path class="cls-3" d="m92.57,60.37c.57.02,1.12.46,1.12,1.46,0,1.13-1.35,2.02-3.11,2.1-.88.04-1.45-.13-1.43-1.21.03-1.31,1.27-2.33,3.42-2.35Z"/>
    <path class="cls-3" d="m33.5,21.62c-1.04.3-1.25-.61-1.37-1.36-.14-.93,1.67-2.81,2.56-2.84,1.08-.04,1.55.68,1.66,1.53.13,1-1.67,2.65-2.85,2.67Z"/>
    <path class="cls-3" d="m26.48,61.77c.03-1.18,1.74-3.05,2.75-2.9.82.12,1.32.77,1.4,1.53.1.98-1.74,2.95-2.66,2.85-.78-.09-1.61-.36-1.48-1.47Z"/>
    <path class="cls-3" d="m70.52,64.58c.94,0,1.5.42,1.52,1.44,0,.4-.13.83-.37,1.23h-3.76c.2-.82,2.03-2.67,2.61-2.67Z"/>
    <path class="cls-3" d="m76.3,23.23c.93,0,1.55.39,1.54,1.4-.01,1.07-1.87,2.83-2.84,2.82-1.02-.02-1.23-.79-1.3-1.49-.1-.91,1.75-2.73,2.61-2.72Z"/>
    <path class="cls-3" d="m50.06,27.11c0,1.06.09,2.11-.32,3.14-.32.83-.88,1.18-1.73,1.05-.89-.14-1.27-.73-1.17-1.6.31-2.7.87-3.51,3.25-2.56,0,0-.03-.03-.03-.03Z"/>
    <path class="cls-3" d="m0,66.69c.37.48,1.09.76,1.83.07,1.02-.96,1.07-2.19,1.05-3.46v-.02l.03.03h0s-.02,0-.03,0c-.79-.4-1.41-1.78-2.49-.56-.09.11-.18.22-.25.32l-.14,3.62Z"/>
    <path class="cls-3" d="m97.56,28.44c-.07.47-.16,1.01-.87,1.34-.7.32-1.12.07-1.52-.39-.48-.55-1.04-1.08-1.35-1.72-.34-.7-.27-1.51.5-1.96.69-.41,1.4-.35,1.99.31.87.97,1.26,1.66,1.25,2.43Z"/>
    <path class="cls-3" d="m91.74,33.25c-.09,1.09-.12,2.21-.75,3.14-.3.45-.71.99-1.45.62-.59-.29-1.16-.56-1.03-1.38.04-.26-.04-.54.01-.8.18-.83.07-1.74,1.06-2.28,1.08-.58,1.46.48,2.18.73,0,0-.03-.03-.03-.03Z"/>
    <path class="cls-3" d="m56.86,34.84c1.06.23,2.17.35,2.27,1.88.07,1.14-.59,1.56-1.48,1.66-.95.11-2.53-1.32-2.38-2.12.15-.78.46-1.59,1.59-1.42Z"/>
    <path class="cls-3" d="m14.96,29.05c1.46,0,2.86,1.07,2.77,1.93-.1.95-.7,1.69-1.66,1.57-1.09-.14-2.18-.57-2.2-2.02-.01-.99.51-1.46,1.08-1.49Z"/>
    <path class="cls-3" d="m98.37,40.44c.98-.03,2.4,1.16,2.41,2.08.02,1.02-.66,1.38-1.54,1.46-1,.09-2.35-1.11-2.33-2.02.02-.94.79-1.16,1.45-1.51Z"/>
  </g>
  <g>
    <path class="cls-5" d="m208.06,19.03c-1.38-.94-2.8-1.84-4.26-2.66-.01,0-.02-.02-.03-.03l-1.5-.8h0c-8.1-4.26-17.32-6.67-27.1-6.67-.09,0-.16,0-.25,0h0c-1.65,0-3.29.07-4.91.22-.41.03-.82.07-1.23.12-.86.09-1.71.2-2.56.33h0c-1.37.21-2.73.47-4.06.78l-2.64.67c-1.15.32-2.28.67-3.39,1.05h0l-2.17.8c-1.98.78-3.91,1.65-5.78,2.63h-.01s-2.02,1.11-2.02,1.11h-.01c-3.6,2.08-6.96,4.51-10.02,7.28-.99.89-1.96,1.82-2.88,2.78-1.61,1.66-3.12,3.42-4.52,5.26l-1.44,1.98c-2.09,2.99-3.91,6.17-5.4,9.53,0,0,0,.01,0,.02-.32.72-.63,1.42-.92,2.15h0c-.45,1.12-.86,2.25-1.23,3.39-.43,1.3-.82,2.62-1.15,3.96-.83,3.27-1.38,6.65-1.62,10.11-.09,1.2-.13,2.4-.14,3.62,0,.18,0,.37,0,.56h116.77c0-.71-.01-1.42-.04-2.12-.1-2.95-.43-5.83-.95-8.65h0c-.15-.8-.32-1.61-.49-2.39h0c-.34-1.48-.74-2.94-1.19-4.37-.52-1.67-1.12-3.31-1.79-4.91-1.11-2.67-2.41-5.23-3.89-7.68-.59-.97-1.2-1.92-1.84-2.85-.76-1.12-1.57-2.21-2.42-3.27-.56-.71-1.13-1.4-1.73-2.08-2.04-2.34-4.26-4.52-6.64-6.5,0,0,0,0-.01,0-.22-.19-.43-.36-.65-.53-.64-.53-1.3-1.03-1.96-1.52l-1.87-1.33Z"/>
    <path class="cls-3" d="m132.59,41.42c-.07,1.21-1.14,1.96-2.07,1.44-2.01-1.12-3.39-3.03-5.14-4.48-.72-.6-.2-1.56.54-2.19.67-.57,1.22-.45,1.82.11,1.39,1.32,2.81,2.61,4.21,3.91.4.37.82.73.64,1.21Z"/>
    <path class="cls-3" d="m172.63,48.78c-.38-.03-.6.01-.69-.07-1.71-1.59-3.46-3.14-5.05-4.84-.5-.53-.19-1.36.45-1.92.62-.54,1.25-.37,1.74.03,1.64,1.36,3.35,2.64,4.75,4.27.37.44.52.99.12,1.57-.38.56-.76,1.04-1.31.95Z"/>
    <path class="cls-2" d="m119.66,63.3v-.02l.03.03h0"/>
    <path class="cls-3" d="m121.56,67.25c-.18-.2-.34-.45-.49-.74-.56-1.03-.51-2.32-1.4-3.2h0c0-.82-.72-1.38-.7-2.23.01-.96.41-1.55,1.27-1.76.78-.2,1.3.22,1.67.95.82,1.65,1.28,3.43,2.12,5.07.27.52.48,1.34.01,1.9h-2.48Z"/>
    <path class="cls-3" d="m166.85,27.14c-.12-.34-.18-.72-.36-1.03-.59-1.01-.35-1.96.56-2.45.95-.52,1.86.14,2.23.99.79,1.82,1.46,3.69,2.27,5.5.35.79-.18,1.47-.99,1.86-.89.43-1.42-.03-1.77-.71-.7-1.37-1.31-2.79-1.96-4.19l.03.03Z"/>
    <path class="cls-3" d="m178.93,57.45c-.52.14-.96-.12-1.22-.37-1.29-1.26-2.97-2.03-4.2-3.39-.78-.86-.7-1.69-.15-2.43.63-.84,1.4-.59,2.16.07,1.44,1.24,2.95,2.4,4.43,3.59.6.48.59,1.16.34,1.75-.23.54-.7.98-1.37.78Z"/>
    <path class="cls-3" d="m137.6,51.66c-.2,0-.26,0-.31,0-1.12-.05-5.66-3.63-5.93-4.67-.18-.71.2-1.24.67-1.67.41-.38.94-.38,1.4-.04,1.83,1.35,3.72,2.61,5.29,4.28.41.44.3.79.09,1.29-.28.65-.67.93-1.21.81Z"/>
    <path class="cls-3" d="m215.62,53.09c-.01,1.2-1.22,1.91-2.21,1.12-1.74-1.37-3.36-2.92-4.97-4.45-.63-.6-.22-1.37.24-1.84.42-.44,1.15-.78,1.73-.3,1.6,1.29,3.16,2.64,4.68,4.03.36.33.61.86.54,1.44Z"/>
    <path class="cls-3" d="m214.32,58.03c.06-.64.48-.95.97-1.2.46-.24.89-.56,1.44-.04,1.3,1.24,2.81,2.23,4.23,3.33.72.56,1.7,1.29.68,2.49-.99,1.16-1.91.68-2.73-.11-1.15-1.11-2.69-1.73-3.71-3.01-.37-.47-.66-.94-.87-1.47Z"/>
    <path class="cls-3" d="m186.22,14.43c-.04,1.15-1.45,1.96-2.29,1.36-1.59-1.12-3.13-2.31-4.63-3.53-.85-.69-1-1.52-.19-2.42.79-.88,1.66-.53,2.24.04,1.29,1.28,2.88,2.15,4.22,3.34.43.38.6.81.66,1.21Z"/>
    <path class="cls-3" d="m208.53,33.28c-.22-.7-.49-1.38-.64-2.1-.18-.83.11-1.53.97-1.77.8-.23,1.53.05,1.88.85.75,1.73,1.43,3.49,2.14,5.24.37.91.28,1.79-.67,2.17-.97.4-1.63-.08-2.18-1.03-.62-1.09-.56-2.47-1.52-3.39l.03.03Z"/>
    <path class="cls-3" d="m194.62,42.73c0-.81.05-1.62-.01-2.42-.07-.99.55-1.67,1.3-1.75.72-.08,1.5.19,1.7,1.39.32,1.93-.04,3.85.17,5.77.08.71-.69,1.36-1.65,1.42-1.13.07-1.37-.74-1.47-1.52-.12-.95-.03-1.93-.03-2.9,0,0,0,0,0,0Z"/>
    <path class="cls-3" d="m162.13,33.47c-.71,2.02-1.34,4.07-2.15,6.05-.35.86-1.35.63-2.01.4-.62-.21-.97-.96-.78-1.59.55-1.8,1.24-3.55,1.87-5.32.33-.92,1.03-1.23,1.9-1.02.68.16,1.08.67,1.16,1.47Z"/>
    <path class="cls-3" d="m168.43,36.5c.91-.09,1.47.31,1.58.97.11.66.38,1.51-.61,1.92-1.79.74-3.49,1.69-5.37,2.21-.8.22-1.46-.14-1.65-.88-.16-.61-.42-1.55.39-1.88,1.8-.74,3.59-1.48,5.32-2.35.13-.06.32,0,.33,0Z"/>
    <path class="cls-3" d="m127.23,33.9c.19-.09.38-.18.56-.28.63-.32,1.13-.9.88-1.7l-1.44,1.98Z"/>
    <path class="cls-3" d="m203.5,39.35c-.54,1.87-1.06,3.95-2,5.87-.38.77-1.11.77-1.93.35-1.19-.6-.85-1.51-.55-2.31.53-1.42,1.09-2.83,1.42-4.32.02-.1,0-.23.05-.31.42-.64.96-1.19,1.77-1.07.85.12,1.16.83,1.23,1.78Z"/>
    <path class="cls-3" d="m211.73,44.23c-.04.48-.62.97-1.41,1.28-1.41.56-2.89,1.01-4.23,1.71-1.17.6-1.84-.04-2.25-.8-.49-.9.21-1.78.96-2.07,1.62-.62,3.23-1.24,4.82-1.95,1.04-.47,2.15.34,2.11,1.83Z"/>
    <path class="cls-3" d="m155.27,66.78c.38.16.78.27,1.08.47h-1.92c.28-.15.56-.31.84-.47Z"/>
    <path class="cls-3" d="m204.34,32.65c-.21.91-.9,1.46-1.62,1.86-1.33.75-2.75,1.32-4.09,2.05-.8.44-1.31.14-1.74-.45-.45-.61-.59-1.3.1-1.84,1.71-1.33,3.54-2.5,5.66-3.03.92-.23,1.51.44,1.69,1.4Z"/>
    <path class="cls-3" d="m161.15,25.43c.74-.03,1.21.39,1.41.95.18.53.24,1.17-.33,1.62-1.62,1.29-3.55,2.05-5.39,2.95-.67.33-1.21-.2-1.6-.76-.36-.52-.48-1.17,0-1.57,1.75-1.45,3.82-2.34,5.9-3.18Z"/>
    <path class="cls-3" d="m156.17,37.2c0,.86,0,1.72,0,2.58.01,1.08-.52,1.54-1.58,1.55-1.11,0-1.33-.67-1.33-1.57,0-1.77,0-3.55,0-5.32,0-.93.44-1.54,1.35-1.56.98-.02,1.6.48,1.56,1.58-.03.91,0,1.83,0,2.74Z"/>
    <path class="cls-3" d="m220.72,40.56c.24-.25.48-.01.67.12,1.65,1.13,3.22,2.34,4.24,4.12.36.63.34,1.25-.24,1.64-.57.38-1.27.9-1.97.23-1.36-1.31-2.68-2.65-4-3.99-.39-.4-.39-.94-.07-1.32.33-.38.58-1.06,1.37-.8Z"/>
    <path class="cls-3" d="m137.52,29.02c.55.07.93-.05,1.26.25,1.29,1.19,2.63,2.33,3.71,3.74.58.76.43,1.51-.3,2.05-.62.45-1.23.68-1.95-.09-1.09-1.16-2.15-2.36-3.49-3.29-.52-.36-.86-1.14-.49-1.86.28-.55.77-.9,1.27-.79Z"/>
    <path class="cls-3" d="m184.28,39.51c.07.98-.59,1.35-1.29,1.63-.64.26-.97-.16-1.37-.62-.84-.95-1.67-1.91-2.78-2.61-.89-.57-1.55-1.42-.71-2.53.71-.95,1.73-.89,2.79.15.94.92,1.85,1.86,2.79,2.78.36.35.68.68.58,1.19Z"/>
    <path class="cls-3" d="m157.39,19.36c.64,0,1.29.06,1.93-.01,1.18-.14,1.8.66,1.91,1.51.13.98-.72,1.64-1.7,1.71-1.44.1-2.9.08-4.34.01-.97-.04-1.64-.65-1.57-1.63.06-.92.68-1.53,1.68-1.58.7-.03,1.39,0,2.09,0Z"/>
    <path class="cls-3" d="m141.69,47.09c.25.08.42.09.55.18,1.41.92,2.84,1.81,4.21,2.79.79.56.93,1.37.35,2.2-.49.71-1.11.89-1.88.39-1.32-.85-2.67-1.67-4-2.52-.78-.5-.66-1.3-.51-2.03.14-.68.87-.68,1.27-1Z"/>
    <path class="cls-3" d="m181.7,54.68c0-1.22,1.38-2.06,2.46-1.42,1.35.8,2.63,1.72,3.94,2.59.83.55.83,1.26.35,2.02-.45.71-1.16.97-1.87.55-1.44-.84-2.83-1.78-4.21-2.72-.33-.22-.72-.51-.67-1.02Z"/>
    <path class="cls-3" d="m223.38,60.34c-.05-1.28.81-1.87,1.99-1.36,1.55.68,2.9,1.68,4.27,2.66.69.49.71,1.26.39,1.87-.31.58-.91,1.12-1.7.75-1.62-.75-3.11-1.74-4.53-2.8-.27-.2-.52-.68-.41-1.13Z"/>
    <path class="cls-3" d="m198.91,25.18c.75,0,1.5-.06,2.24.02.92.1,1.63.52,1.54,1.62-.09,1.05-1.01,1.64-1.72,1.5-1.34-.26-2.57.27-3.87.11-1.2-.14-1.86-.65-1.83-1.88.04-1.22.86-1.43,1.87-1.39.59.03,1.18,0,1.76,0Z"/>
    <path class="cls-3" d="m194.29,15.31c.01,1.58-.78,2.17-2.04,1.51-1.44-.76-2.82-1.64-4.14-2.59-.71-.52-.76-1.34-.23-2.11.56-.82,1.22-.78,2-.28,1.28.82,2.59,1.6,3.89,2.39.49.29.6.72.52,1.09Z"/>
    <path class="cls-3" d="m189.77,20.65c.2,1.04-.7,1.43-1.36,1.55-1.24.22-2.45.54-3.64.92-1.09.35-2.01,0-2.32-1.03-.32-1.1.52-1.76,1.49-2.05,1.35-.39,2.72-.77,4.1-.93.92-.11,1.8.25,1.73,1.54Z"/>
    <path class="cls-3" d="m182.39,60.6c.78.06,1.43.15,1.56,1.09.11.81-.06,1.55-.87,1.87-1.56.6-3.25.72-4.84,1.25-.68.22-1.4-.48-1.57-1.27-.18-.82.33-1.53,1.01-1.76,1.54-.5,3.14-.8,4.71-1.18Z"/>
    <path class="cls-3" d="m140.65,54.9c1.03-.06,1.74.37,1.88,1.22.12.73-.2,1.48-1.07,1.72-1.61.43-3.22.91-4.86,1.2-.52.09-1.24-.24-1.43-1.01-.23-.97.33-1.72,1.02-1.97,1.47-.54,3.04-.8,4.45-1.14Z"/>
    <path class="cls-3" d="m146.1,16.6s0,0,.01,0c.42-.1.84-.23,1.23-.43.36-.18.63-.41.79-.69h0l-2.04,1.12Z"/>
    <path class="cls-3" d="m225.51,67.25h-5.13c1.13-.3,2.27-.47,3.39-.77.78-.05,1.52.09,1.74.77Z"/>
    <path class="cls-3" d="m191.16,66.84h4.27c.52,0,.89.14,1.12.41h-6.75c.32-.31.82-.4,1.36-.41Z"/>
    <path class="cls-3" d="m151.49,63.99c-.69,0-1.38-.02-2.07,0-.99.04-1.61-.58-1.56-1.39.04-.71.49-1.56,1.49-1.58,1.54-.03,3.08-.04,4.61,0,.89.03,1.54.58,1.51,1.47-.03.88-.68,1.38-1.58,1.41-.8.03-1.6,0-2.4,0v.06Z"/>
    <path class="cls-3" d="m163.62,46.74c-.14,1.15-.15,2.33-.44,3.44-.21.78-.66,1.67-1.78,1.44-.96-.2-1.36-.87-1.35-1.84.02-1.33.38-2.61.42-3.94.02-.62.55-1.5,1.63-1.3,1.25.24,1.6,1.05,1.52,2.19Z"/>
    <path class="cls-3" d="m121.83,43.45c-.05.41-.12.83-.23,1.24-.12.47-.37.76-.69.91.29-.73.59-1.44.92-2.15Z"/>
    <path class="cls-3" d="m168.76,9.22c-.26.55-.76.96-1.66.78-.43-.08-.72-.24-.9-.45.84-.13,1.7-.24,2.56-.33Z"/>
    <path class="cls-3" d="m204.95,53.3c.19.89-.2,1.85-.32,2.84-.11.9-.75,1.31-1.53,1.29-.73-.02-1.26-.57-1.34-1.31-.18-1.64,0-3.29.38-4.88.14-.62.81-1.07,1.45-.99.67.09,1.31.5,1.37,1.32.04.53,0,1.07,0,1.74Z"/>
    <path class="cls-3" d="m140.92,42.84c.25-1.28.38-2.6.79-3.82.26-.78,1.01-1.59,1.97-1.15.79.36,1.36,1.11,1.01,2.19-.32.99-.6,2.01-.78,3.03-.17,1.02-.66,1.76-1.68,1.74-1.21-.03-1.34-1-1.31-1.99Z"/>
    <path class="cls-3" d="m186.28,45.32c-.3,1.37-.59,2.75-.91,4.12-.23.95-1.01,1.16-1.8,1-.79-.16-1.38-.74-1.2-1.61.29-1.43.7-2.83,1.08-4.23.24-.86.86-1.2,1.71-.99.86.22,1.16.85,1.12,1.71Z"/>
    <path class="cls-3" d="m154.94,48.22c-.9.08-1.44-.42-1.52-1.15-.08-.72-.07-1.59.94-1.86,1.16-.32,2.38-.51,3.44-1.03,1.22-.6,1.75.17,2.15.91.48.9-.31,1.63-.98,1.91-1.28.55-2.68.83-4.02,1.23Z"/>
    <path class="cls-3" d="m201.42,51.51c.09,1.23-1.17,1.45-2.11,1.64-1.33.26-2.76,1.63-4.08.19-.74-.8-.4-1.8.56-2.25,1.22-.56,2.52-1.04,3.84-1.3.91-.18,1.79.22,1.8,1.72Z"/>
    <path class="cls-3" d="m177.75,22.9c1.17,0,1.71.61,1.94,1.28.21.6-.2,1.27-.78,1.6-1.14.65-2.37,1.09-3.46,1.86-.65.45-1.36,0-1.87-.45-.52-.46-.3-1.04.02-1.58,1.01-1.69,2.96-1.8,4.16-2.69Z"/>
    <path class="cls-3" d="m173.72,65.18c.55.69.21,1.53-.26,1.86-.1.07-.2.14-.3.2h-5.52c.09-.28.28-.53.58-.76,1.09-.85,2.35-1.37,3.61-1.91.81-.35,1.4,0,1.88.61Z"/>
    <path class="cls-3" d="m223.96,54.39c.25-1.28.37-2.55.78-3.73.27-.78.95-1.57,1.97-1.19.92.33,1.32,1.02.93,2.1-.35.98-.59,2.03-.69,3.06-.1,1.17-.65,1.58-1.75,1.57-1.36-.02-1.03-1.06-1.25-1.79Z"/>
    <path class="cls-3" d="m130.39,58.8c1.15-.11,1.64.29,1.84.96.29.99-.28,1.77-1.07,2.09-.98.4-1.93.83-2.79,1.44-.77.55-1.46.27-1.98-.28-.54-.57-.43-1.35.05-1.9,1.14-1.3,2.78-1.77,3.95-2.31Z"/>
    <path class="cls-3" d="m219.19,28.92c.6.68,1.17,1.38,1.73,2.08-.05.06-.11.11-.18.17-1.33.96-2.81,1.63-3.99,2.04-.88.05-1.32.07-1.57-.53-.22-.53-.36-1.01.06-1.47,1.08-1.17,2.51-1.77,3.95-2.3Z"/>
    <path class="cls-3" d="m162.13,10.33s.06.05.08.08c.82.99,2.21,1.56,2.37,2.74-.07,1.48-1.25,2.15-2.22,1.57-.96-.58-1.79-1.34-2.51-2.2-.41-.49-.53-1.03-.36-1.52l2.64-.67Z"/>
    <path class="cls-3" d="m158.75,54.83c-.01,1.54-.94,2.1-2.22,1.34-1.06-.63-1.86-1.58-2.61-2.55-.6-.77-.26-1.34.38-1.9.65-.56,1.23-.57,1.81.04.55.58,1.16,1.08,1.83,1.53.53.36.99.85.81,1.53Z"/>
    <path class="cls-3" d="m200.42,60.43c.05,1.31-1.19,2.15-2.14,1.56-.89-.56-1.75-1.22-2.48-1.96-.77-.78-.79-1.82.02-2.56.85-.79,1.71-.33,2.32.46.72.94,2.06,1.35,2.29,2.5Z"/>
    <path class="cls-3" d="m151.99,28.86c-.09,1.29-.9,1.79-2.06,1.23-1.45-.7-1.98-2.11-2.44-3.48-.22-.65.17-1.43.86-1.69.66-.26,1.47-.15,1.8.59.53,1.17,1.86,1.9,1.84,3.35Z"/>
    <path class="cls-3" d="m203.76,16.34s.02.02.03.03c.61.59,1.17,1.24,1.92,1.69.63.37.68,1,.35,1.67-.28.57-.55,1.05-1.23.92-1.1,0-3.65-2.13-3.75-3.14-.07-.76.11-1.39.88-1.84.1-.06.2-.11.29-.13h0l1.5.8Z"/>
    <path class="cls-3" d="m193.01,63.09c-.15.78-.13,1.78-1.53,1.83-1.33.05-1.62-.75-1.71-1.8-.06-.68-.11-1.35-.23-2.03-.16-.9.34-1.83,1.4-1.97.99-.13,1.69.48,1.69,1.46,0,.83.4,1.55.38,2.51Z"/>
    <path class="cls-3" d="m147.99,42.65c.96-.07,1.54-.06,1.64.52.12.65.29,1.36-.31,1.95-.87.86-1.85,1.53-2.96,2.05-.73.35-1.26.09-1.65-.4-.33-.42-.67-.93-.18-1.54,1.04-1.3,2.44-2.02,3.47-2.57Z"/>
    <path class="cls-3" d="m232.05,54.08h0c.18.79.34,1.59.49,2.39h0c-.78,1.13-2,1.79-3.26,2.24-1.06.38-1.6-.51-1.92-1.42.18-.61.59-1.11,1.1-1.5.75-.57,1.52-1.12,2.3-1.65.45-.32.87-.31,1.28-.05Z"/>
    <path class="cls-3" d="m165.78,48.7c1.4.58,2.82,1.18,3.82,2.39.45.55-.12,1.1-.41,1.58-.3.5-.82.8-1.38.57-1.22-.51-2.41-1.11-3.3-2.14-.45-.52-.38-1.14-.11-1.65.25-.47.7-.83,1.38-.75Z"/>
    <path class="cls-3" d="m189.13,32.69c0-1.11.07-1.81.79-1.98.82-.19,1.59.1,2.08.83.47.7.8,1.49,1.3,2.15.6.78.34,1.31-.23,1.95-.61.69-1.21.57-1.82.15-1.24-.86-1.69-2.21-2.13-3.09Z"/>
    <path class="cls-3" d="m233.49,65.13c.03.7.04,1.41.04,2.12h-2.42c-.03-.3-.03-.6,0-.91.08-.8.41-1.29,1.2-1.43.47-.08.87,0,1.18.22Z"/>
    <path class="cls-3" d="m128.06,45.91c-.02,1.08-1.3,1.95-2.15,1.42-.72-.46-1.52-.76-2.19-1.24-.72-.51-1.51-1.19-.9-2.23.57-.97,1.43-1.22,2.44-.57.75.49,1.47,1.02,2.24,1.48.5.3.61.71.56,1.14Z"/>
    <path class="cls-3" d="m144.51,67.1s.07.09.1.15h-2.69c.54-.99,1.89-1.11,2.59-.15Z"/>
    <path class="cls-3" d="m156.09,12.05h0c.36.16.62.49.69.88.17.93.28,1.88.34,2.82.08,1.09-.36,1.91-1.53,1.97-1.17.07-1.44-.92-1.67-1.79-.11-.45-.02-.96-.02-1.54.03-.47-.19-1.01.01-1.53l2.17-.8Z"/>
    <path class="cls-3" d="m195.3,19.23c-.06-.81.32-1.36,1.12-1.46.66-.08,1.27-.14,1.71.72.61,1.22.27,2.5.48,3.74.09.54-.49,1.29-1.35,1.32-.87.03-1.45-.46-1.62-1.23-.21-1.01-.24-2.06-.35-3.1Z"/>
    <path class="cls-3" d="m185.9,51.46c.16-.37.23-.84.76-1.17.76-.47,1.42-1.1,2.11-1.67.8-.66,1.52-.49,2.2.2.76.78.42,1.39-.23,2.04-.75.76-1.57,1.42-2.53,1.87-1.25.58-2.36,0-2.31-1.27Z"/>
    <path class="cls-3" d="m174.9,8.88s0,0,0,0c.49.4.51,1.01.37,1.57-.18.72-.66,1.21-1.88,1.14-.98-.3-2.17-.99-3.12-1.95-.16-.16-.25-.34-.28-.54,1.62-.15,3.26-.22,4.91-.22Z"/>
    <path class="cls-3" d="m151.31,56.61c.02.95.16,1.81-.72,2.41-.71.48-2.09.17-2.13-.64-.05-1.17-.49-2.28-.4-3.48.08-1,.74-1.39,1.47-1.54.77-.16,1.23.49,1.43,1.17.2.7.54,1.4.35,2.07Z"/>
    <path class="cls-3" d="m136.3,39.05c1.83.52,1.36,2.52,2.02,3.82.43.86-.32,1.45-1.13,1.78-.1.04-.17.15-.27.17-.92.13-2-1.42-2.37-3.5-.19-1.04.14-1.88,1.24-2.24.1-.03.21-.02.51-.03Z"/>
    <path class="cls-3" d="m207.36,54.56c1.45.02,3.78,1.91,3.74,3.01-.04,1.14-.59,1.53-1.73,1.3-1.24-.26-2.13-1.09-3.11-1.75-.64-.43-.39-1.18-.22-1.72.17-.55.68-.95,1.33-.84Z"/>
    <path class="cls-3" d="m129.34,56.43c-1.15.19-1.68-.22-1.88-.86-.19-.6-.18-1.34.5-1.7,1.06-.56,2.14-1.11,3.26-1.52.76-.28,1.13.5,1.51.96.35.43.24.96-.16,1.44-.95,1.14-2.42,1.14-3.23,1.68Z"/>
    <path class="cls-3" d="m179.75,48.69c.14.9-.31,1.51-1.18,1.75-.85.23-1.4-.34-1.69-1-.42-.95-.76-1.95-.96-2.96-.15-.8.59-1.25,1.19-1.52.6-.28,1.38-.02,1.63.58.41,1,1.11,1.94,1.01,3.16Z"/>
    <path class="cls-3" d="m119.68,49c.69-.04,1.15.26,1.41,1.02.29.88.45,1.81.65,2.72.16.7-.33,1.5-1.23,1.74-.89.24-1.32-.31-1.73-.96-.11-.18-.19-.36-.25-.55.33-1.34.72-2.66,1.15-3.96Z"/>
    <path class="cls-3" d="m169.09,60.6c-.09-.61.17-1.01.82-1.28.77-.31,1.51-.69,2.28-1.01.95-.39,1.65-.18,1.96.65.3.79.19,1.67-.75,2.14-.75.38-1.47.83-2.25,1.11-1.22.44-2.08-.26-2.07-1.62Z"/>
    <path class="cls-3" d="m229.07,44.81c.67,1.6,1.27,3.24,1.79,4.91-.04,0-.08,0-.12,0-1.19-.07-3.16-2.2-3.16-3.43-.12-.59.26-1.03.73-1.25.24-.11.51-.2.76-.21Z"/>
    <path class="cls-3" d="m180.08,18.3c.04.54-.25.8-.7,1.1-.84.57-1.81.78-2.66,1.29-.88.52-1.38-.03-1.79-.65-.48-.74-.33-1.51.41-1.97.88-.54,1.78-1.1,2.83-1.32,1.12-.23,1.96.43,1.91,1.55Z"/>
    <path class="cls-3" d="m159.75,56.46c-.21-.9.13-1.67,1.06-1.77.88-.1,1.67.41,1.8,1.38.17,1.25,1.37,2.52.05,3.79-.71.68-1.9.57-2.2-.34-.32-.98-.92-1.92-.71-3.06Z"/>
    <path class="cls-3" d="m219.04,50.68c.82,0,1.21.44,1.42,1,.36.97.66,1.96.96,2.96.26.87-.57,1.05-1.01,1.37-.52.38-1.17.25-1.53-.32-.67-1.06-1.18-2.2-1.31-3.47-.12-1.2.81-1.3,1.48-1.54Z"/>
    <path class="cls-3" d="m166.89,13.23c.67-.15,1.13.19,1.35.9.28.89.61,1.78.82,2.69.23.98-.52,1.5-1.21,1.84-.66.32-1.24-.14-1.58-.74-.67-1.18-.83-2.48-.72-3.82.06-.82.62-.89,1.35-.87Z"/>
    <path class="cls-3" d="m202.41,60.38c.23.01.29,0,.34.02.81.27,1.52.81,1.51,1.65-.01,1.14,1.54,2.3-.04,3.45-.66.48-1.27.53-1.91.12-.78-.5-1.41-4.02-.83-4.7.25-.29.7-.42.93-.54Z"/>
    <path class="cls-3" d="m214.1,67.25c.51-.22.99-.47,1.43-.81.32-.24.47-.57.41-.93-.05-1.01-1.08-1.86-1.98-1.53-.98.36-1.94.83-2.79,1.41-.48.33-.98.99-.6,1.63.04.07.09.15.13.23h3.39Z"/>
    <path class="cls-3" d="m133.2,26.66c.39.26.94.37,1.46.45.21.03.43,0,.65,0,1.35.09,2.67-.23,2.7-1.75.02-1.32-.94-1.48-1.92-1.49l-2.88,2.78Z"/>
    <path class="cls-3" d="m147.84,38.09c-.98.03-3.18-1.87-3.3-2.85-.11-.88.34-1.34,1.09-1.73.78-.41,1.18-.03,1.51.51.36.59,1.01.77,1.47,1.2.64.6.76,1.28.47,2.13-.23.67-.66.76-1.23.73Z"/>
    <path class="cls-3" d="m186.06,40.37c-.01-.58.47-.89.85-1.15.62-.44,1.28-.1,1.74.31.7.63,1.32,1.36,1.89,2.12.37.49.32,1.11,0,1.64-.4.64-1.04.73-1.7.59-.88-.19-2.7-2.57-2.77-3.51Z"/>
    <path class="cls-3" d="m210.45,22.83c.1.82-.19,1.47-1.05,1.67-.91.21-1.48-.49-1.73-1.12-.3-.76-.5-1.59-.72-2.39-.21-.76.12-1.56.83-1.87.8-.35,1.63-.06,1.99.81.37.91.75,1.84.68,2.9Z"/>
    <path class="cls-3" d="m130.56,65.38c.78.11,1.77.35,1.69,1.52,0,.13-.03.24-.05.35h-5.33c-.18-.82.16-1.43.93-1.65.88-.24,1.86-.33,2.77-.22Z"/>
    <path class="cls-3" d="m176.83,29.7c.48,0,.97-.04,1.45.01.65.07,1.04.49,1.15,1.13.1.62,0,1.3-.61,1.52-1.22.43-2.51.81-3.78.14-.71-.37-.93-1.03-.74-1.77.18-.68.65-1.07,1.41-1.04.37.02.75,0,1.13,0h0Z"/>
    <path class="cls-3" d="m172.33,41.11c.43-1.7,2.3-.94,3.52-1.33.84-.27,1.44.59,1.61,1.4.22,1.04-1.11,1.9-3.06,2.04-1.24.09-2.1-.64-2.07-2.11Z"/>
    <path class="cls-3" d="m133.36,34.22c.43,0,.86-.04,1.28,0,.66.07,1.05.48,1.16,1.12.11.61.03,1.34-.59,1.51-1.03.29-2.11.79-3.19.45-.65-.21-1.57-.58-1.32-1.51.22-.85.67-1.72,1.86-1.59.26.03.53,0,.8,0,0,0,0,0,0,0Z"/>
    <path class="cls-3" d="m218.35,35.51c.38,0,.77-.07,1.13.02.75.18,1.75.25,1.6,1.35-.12.89-.72,1.52-1.74,1.53-.59,0-1.19-.05-1.77.01-1.34.14-1.76-.87-1.78-1.77-.02-.89.88-1.18,1.76-1.15.27.01.54,0,.81,0Z"/>
    <path class="cls-3" d="m164.25,56.74c.07-1.27,1.07-1.5,2.01-1.86.96-.36,1.88-.5,2.61.32.42.46.38,1.15,0,1.63-.88,1.1-2.23,1.37-3.51,1.45-.45.03-1.18-.7-1.11-1.54Z"/>
    <path class="cls-3" d="m135.69,62.73c.85-.04,3.01,1.95,2.99,2.87-.01,1.01-.65,1.69-1.61,1.82-.85.11-2.51-1.89-2.55-2.91-.04-.89.53-1.75,1.17-1.78Z"/>
    <path class="cls-3" d="m127.41,50.32c.02,1.06-1.77,2.34-3.23,2.3-.99-.03-1.38-.76-1.46-1.54-.1-.95,1.91-2.29,3.32-2.32.85-.02,1.35.55,1.37,1.56Z"/>
    <path class="cls-3" d="m162.96,62.71c.28-.62.44-1.51,1.38-1.63.91-.11,2.74,1.96,2.81,3.06.07,1.04-.74,1.41-1.47,1.62-.75.21-2.7-2.01-2.72-3.05Z"/>
    <path class="cls-3" d="m170.05,15.18c.28-1.36,1.53-1.49,2.53-1.98.91-.45,1.47,0,2.05.57.65.65.14,1.35-.24,1.67-.94.79-1.97,1.61-3.36,1.18-.65-.2-1.15-.59-.98-1.44Z"/>
    <path class="cls-3" d="m170.33,19.68c.88.02,2.78,2.24,2.6,3.07-.17.81-.71,1.45-1.66,1.44-.83-.01-2.62-2.16-2.48-3.02.15-.87.46-1.7,1.54-1.5Z"/>
    <path class="cls-3" d="m216.92,45.64c1.15-.01,1.97.15,1.93,1.47-.05,1.62-1.34,1.53-2.39,1.62-1.09.09-2.51.31-2.42-1.44.1-2.08,1.87-1.24,2.88-1.65Z"/>
    <path class="cls-3" d="m140.34,23.17c-.04-1.18.31-1.82,1.32-1.86.83-.04,2.97,2.24,2.76,3.08-.19.73-.6,1.49-1.64,1.44-1.02-.04-2.43-1.68-2.43-2.66Z"/>
    <path class="cls-3" d="m206.05,66.88c.22-.04.52.11.86.37h-1.89c.28-.22.67-.3,1.03-.37Z"/>
    <path class="cls-3" d="m223.34,34.28c.64.93,1.25,1.88,1.84,2.85-.08-.06-.17-.14-.26-.22-.82-.76-1.55-1.56-1.59-2.64Z"/>
    <path class="cls-3" d="m183.17,27.11c1.12.07,2.83,2.02,2.71,3.03-.1.89-.62,1.45-1.54,1.46-.78,0-2.76-2.27-2.61-3.07.14-.78.43-1.6,1.44-1.43Z"/>
    <path class="cls-3" d="m121.6,56.89c.08-.69.19-1.44,1.34-1.37,1.13.07,2.56,1.59,2.54,2.81-.02.99-.5,1.63-1.48,1.7-.92.07-2.37-1.83-2.39-3.14Z"/>
    <path class="cls-3" d="m211.89,21.88c.22.17.43.34.65.53-.28-.1-.51-.28-.65-.53Z"/>
    <path class="cls-3" d="m209.33,60.37c.57.02,1.12.46,1.12,1.46,0,1.13-1.35,2.02-3.11,2.1-.88.04-1.45-.13-1.43-1.21.03-1.31,1.27-2.33,3.42-2.35Z"/>
    <path class="cls-3" d="m150.26,21.62c-1.04.3-1.25-.61-1.37-1.36-.14-.93,1.67-2.81,2.56-2.84,1.08-.04,1.55.68,1.66,1.53.13,1-1.67,2.65-2.85,2.67Z"/>
    <path class="cls-3" d="m143.25,61.77c.03-1.18,1.74-3.05,2.75-2.9.82.12,1.32.77,1.4,1.53.1.98-1.74,2.95-2.66,2.85-.78-.09-1.61-.36-1.48-1.47Z"/>
    <path class="cls-3" d="m187.29,64.58c.94,0,1.5.42,1.52,1.44,0,.4-.13.83-.37,1.23h-3.76c.2-.82,2.03-2.67,2.61-2.67Z"/>
    <path class="cls-3" d="m193.07,23.23c.93,0,1.55.39,1.54,1.4-.01,1.07-1.87,2.83-2.84,2.82-1.02-.02-1.23-.79-1.3-1.49-.1-.91,1.75-2.73,2.61-2.72Z"/>
    <path class="cls-3" d="m166.83,27.11c0,1.06.09,2.11-.32,3.14-.32.83-.88,1.18-1.73,1.05-.89-.14-1.27-.73-1.17-1.6.31-2.7.87-3.51,3.25-2.56,0,0-.03-.03-.03-.03Z"/>
    <path class="cls-3" d="m116.77,66.69c.37.48,1.09.76,1.83.07,1.02-.96,1.07-2.19,1.05-3.46v-.02l.03.03h0s-.02,0-.03,0c-.79-.4-1.41-1.78-2.49-.56-.09.11-.18.22-.25.32l-.14,3.62Z"/>
    <path class="cls-3" d="m214.33,28.44c-.07.47-.16,1.01-.87,1.34-.7.32-1.12.07-1.52-.39-.48-.55-1.04-1.08-1.35-1.72-.34-.7-.27-1.51.5-1.96.69-.41,1.4-.35,1.99.31.87.97,1.26,1.66,1.25,2.43Z"/>
    <path class="cls-3" d="m208.51,33.25c-.09,1.09-.12,2.21-.75,3.14-.3.45-.71.99-1.45.62-.59-.29-1.16-.56-1.03-1.38.04-.26-.04-.54.01-.8.18-.83.07-1.74,1.06-2.28,1.08-.58,1.46.48,2.18.73,0,0-.03-.03-.03-.03Z"/>
    <path class="cls-3" d="m173.63,34.84c1.06.23,2.17.35,2.27,1.88.07,1.14-.59,1.56-1.48,1.66-.95.11-2.53-1.32-2.38-2.12.15-.78.46-1.59,1.59-1.42Z"/>
    <path class="cls-3" d="m131.73,29.05c1.46,0,2.86,1.07,2.77,1.93-.1.95-.7,1.69-1.66,1.57-1.09-.14-2.18-.57-2.2-2.02-.01-.99.51-1.46,1.08-1.49Z"/>
    <path class="cls-3" d="m215.14,40.44c.98-.03,2.4,1.16,2.41,2.08.02,1.02-.66,1.38-1.54,1.46-1,.09-2.35-1.11-2.33-2.02.02-.94.79-1.16,1.45-1.51Z"/>
  </g>
  <g>
    <path class="cls-5" d="m324.83,19.03c-1.38-.94-2.8-1.84-4.26-2.66-.01,0-.02-.02-.03-.03l-1.5-.8h0c-8.1-4.26-17.32-6.67-27.1-6.67-.09,0-.16,0-.25,0h0c-1.65,0-3.29.07-4.91.22-.41.03-.82.07-1.23.12-.86.09-1.71.2-2.56.33h0c-1.37.21-2.73.47-4.06.78l-2.64.67c-1.15.32-2.28.67-3.39,1.05h0l-2.17.8c-1.98.78-3.91,1.65-5.78,2.63h-.01s-2.02,1.11-2.02,1.11h-.01c-3.6,2.08-6.96,4.51-10.02,7.28-.99.89-1.96,1.82-2.88,2.78-1.61,1.66-3.12,3.42-4.52,5.26l-1.44,1.98c-2.09,2.99-3.91,6.17-5.4,9.53,0,0,0,.01,0,.02-.32.72-.63,1.42-.92,2.15h0c-.45,1.12-.86,2.25-1.23,3.39-.43,1.3-.82,2.62-1.15,3.96-.83,3.27-1.38,6.65-1.62,10.11-.09,1.2-.13,2.4-.14,3.62,0,.18,0,.37,0,.56h116.77c0-.71-.01-1.42-.04-2.12-.1-2.95-.43-5.83-.95-8.65h0c-.15-.8-.32-1.61-.49-2.39h0c-.34-1.48-.74-2.94-1.19-4.37-.52-1.67-1.12-3.31-1.79-4.91-1.11-2.67-2.41-5.23-3.89-7.68-.59-.97-1.2-1.92-1.84-2.85-.76-1.12-1.57-2.21-2.42-3.27-.56-.71-1.13-1.4-1.73-2.08-2.04-2.34-4.26-4.52-6.64-6.5,0,0,0,0-.01,0-.22-.19-.43-.36-.65-.53-.64-.53-1.3-1.03-1.96-1.52l-1.87-1.33Z"/>
    <path class="cls-3" d="m249.36,41.42c-.07,1.21-1.14,1.96-2.07,1.44-2.01-1.12-3.39-3.03-5.14-4.48-.72-.6-.2-1.56.54-2.19.67-.57,1.22-.45,1.82.11,1.39,1.32,2.81,2.61,4.21,3.91.4.37.82.73.64,1.21Z"/>
    <path class="cls-3" d="m289.4,48.78c-.38-.03-.6.01-.69-.07-1.71-1.59-3.46-3.14-5.05-4.84-.5-.53-.19-1.36.45-1.92.62-.54,1.25-.37,1.74.03,1.64,1.36,3.35,2.64,4.75,4.27.37.44.52.99.12,1.57-.38.56-.76,1.04-1.31.95Z"/>
    <path class="cls-2" d="m236.42,63.3v-.02l.03.03h0"/>
    <path class="cls-3" d="m238.33,67.25c-.18-.2-.34-.45-.49-.74-.56-1.03-.51-2.32-1.4-3.2h0c0-.82-.72-1.38-.7-2.23.01-.96.41-1.55,1.27-1.76.78-.2,1.3.22,1.67.95.82,1.65,1.28,3.43,2.12,5.07.27.52.48,1.34.01,1.9h-2.48Z"/>
    <path class="cls-3" d="m283.62,27.14c-.12-.34-.18-.72-.36-1.03-.59-1.01-.35-1.96.56-2.45.95-.52,1.86.14,2.23.99.79,1.82,1.46,3.69,2.27,5.5.35.79-.18,1.47-.99,1.86-.89.43-1.42-.03-1.77-.71-.7-1.37-1.31-2.79-1.96-4.19l.03.03Z"/>
    <path class="cls-3" d="m295.69,57.45c-.52.14-.96-.12-1.22-.37-1.29-1.26-2.97-2.03-4.2-3.39-.78-.86-.7-1.69-.15-2.43.63-.84,1.4-.59,2.16.07,1.44,1.24,2.95,2.4,4.43,3.59.6.48.59,1.16.34,1.75-.23.54-.7.98-1.37.78Z"/>
    <path class="cls-3" d="m254.37,51.66c-.2,0-.26,0-.31,0-1.12-.05-5.66-3.63-5.93-4.67-.18-.71.2-1.24.67-1.67.41-.38.94-.38,1.4-.04,1.83,1.35,3.72,2.61,5.29,4.28.41.44.3.79.09,1.29-.28.65-.67.93-1.21.81Z"/>
    <path class="cls-3" d="m332.38,53.09c-.01,1.2-1.22,1.91-2.21,1.12-1.74-1.37-3.36-2.92-4.97-4.45-.63-.6-.22-1.37.24-1.84.42-.44,1.15-.78,1.73-.3,1.6,1.29,3.16,2.64,4.68,4.03.36.33.61.86.54,1.44Z"/>
    <path class="cls-3" d="m331.09,58.03c.06-.64.48-.95.97-1.2.46-.24.89-.56,1.44-.04,1.3,1.24,2.81,2.23,4.23,3.33.72.56,1.7,1.29.68,2.49-.99,1.16-1.91.68-2.73-.11-1.15-1.11-2.69-1.73-3.71-3.01-.37-.47-.66-.94-.87-1.47Z"/>
    <path class="cls-3" d="m302.98,14.43c-.04,1.15-1.45,1.96-2.29,1.36-1.59-1.12-3.13-2.31-4.63-3.53-.85-.69-1-1.52-.19-2.42.79-.88,1.66-.53,2.24.04,1.29,1.28,2.88,2.15,4.22,3.34.43.38.6.81.66,1.21Z"/>
    <path class="cls-3" d="m325.3,33.28c-.22-.7-.49-1.38-.64-2.1-.18-.83.11-1.53.97-1.77.8-.23,1.53.05,1.88.85.75,1.73,1.43,3.49,2.14,5.24.37.91.28,1.79-.67,2.17-.97.4-1.63-.08-2.18-1.03-.62-1.09-.56-2.47-1.52-3.39l.03.03Z"/>
    <path class="cls-3" d="m311.38,42.73c0-.81.05-1.62-.01-2.42-.07-.99.55-1.67,1.3-1.75.72-.08,1.5.19,1.7,1.39.32,1.93-.04,3.85.17,5.77.08.71-.69,1.36-1.65,1.42-1.13.07-1.37-.74-1.47-1.52-.12-.95-.03-1.93-.03-2.9,0,0,0,0,0,0Z"/>
    <path class="cls-3" d="m278.9,33.47c-.71,2.02-1.34,4.07-2.15,6.05-.35.86-1.35.63-2.01.4-.62-.21-.97-.96-.78-1.59.55-1.8,1.24-3.55,1.87-5.32.33-.92,1.03-1.23,1.9-1.02.68.16,1.08.67,1.16,1.47Z"/>
    <path class="cls-3" d="m285.19,36.5c.91-.09,1.47.31,1.58.97.11.66.38,1.51-.61,1.92-1.79.74-3.49,1.69-5.37,2.21-.8.22-1.46-.14-1.65-.88-.16-.61-.42-1.55.39-1.88,1.8-.74,3.59-1.48,5.32-2.35.13-.06.32,0,.33,0Z"/>
    <path class="cls-3" d="m244,33.9c.19-.09.38-.18.56-.28.63-.32,1.13-.9.88-1.7l-1.44,1.98Z"/>
    <path class="cls-3" d="m320.26,39.35c-.54,1.87-1.06,3.95-2,5.87-.38.77-1.11.77-1.93.35-1.19-.6-.85-1.51-.55-2.31.53-1.42,1.09-2.83,1.42-4.32.02-.1,0-.23.05-.31.42-.64.96-1.19,1.77-1.07.85.12,1.16.83,1.23,1.78Z"/>
    <path class="cls-3" d="m328.5,44.23c-.04.48-.62.97-1.41,1.28-1.41.56-2.89,1.01-4.23,1.71-1.17.6-1.84-.04-2.25-.8-.49-.9.21-1.78.96-2.07,1.62-.62,3.23-1.24,4.82-1.95,1.04-.47,2.15.34,2.11,1.83Z"/>
    <path class="cls-3" d="m272.03,66.78c.38.16.78.27,1.08.47h-1.92c.28-.15.56-.31.84-.47Z"/>
    <path class="cls-3" d="m321.11,32.65c-.21.91-.9,1.46-1.62,1.86-1.33.75-2.75,1.32-4.09,2.05-.8.44-1.31.14-1.74-.45-.45-.61-.59-1.3.1-1.84,1.71-1.33,3.54-2.5,5.66-3.03.92-.23,1.51.44,1.69,1.4Z"/>
    <path class="cls-3" d="m277.92,25.43c.74-.03,1.21.39,1.41.95.18.53.24,1.17-.33,1.62-1.62,1.29-3.55,2.05-5.39,2.95-.67.33-1.21-.2-1.6-.76-.36-.52-.48-1.17,0-1.57,1.75-1.45,3.82-2.34,5.9-3.18Z"/>
    <path class="cls-3" d="m272.93,37.2c0,.86,0,1.72,0,2.58.01,1.08-.52,1.54-1.58,1.55-1.11,0-1.33-.67-1.33-1.57,0-1.77,0-3.55,0-5.32,0-.93.44-1.54,1.35-1.56.98-.02,1.6.48,1.56,1.58-.03.91,0,1.83,0,2.74Z"/>
    <path class="cls-3" d="m337.48,40.56c.24-.25.48-.01.67.12,1.65,1.13,3.22,2.34,4.24,4.12.36.63.34,1.25-.24,1.64-.57.38-1.27.9-1.97.23-1.36-1.31-2.68-2.65-4-3.99-.39-.4-.39-.94-.07-1.32.33-.38.58-1.06,1.37-.8Z"/>
    <path class="cls-3" d="m254.28,29.02c.55.07.93-.05,1.26.25,1.29,1.19,2.63,2.33,3.71,3.74.58.76.43,1.51-.3,2.05-.62.45-1.23.68-1.95-.09-1.09-1.16-2.15-2.36-3.49-3.29-.52-.36-.86-1.14-.49-1.86.28-.55.77-.9,1.27-.79Z"/>
    <path class="cls-3" d="m301.04,39.51c.07.98-.59,1.35-1.29,1.63-.64.26-.97-.16-1.37-.62-.84-.95-1.67-1.91-2.78-2.61-.89-.57-1.55-1.42-.71-2.53.71-.95,1.73-.89,2.79.15.94.92,1.85,1.86,2.79,2.78.36.35.68.68.58,1.19Z"/>
    <path class="cls-3" d="m274.16,19.36c.64,0,1.29.06,1.93-.01,1.18-.14,1.8.66,1.91,1.51.13.98-.72,1.64-1.7,1.71-1.44.1-2.9.08-4.34.01-.97-.04-1.64-.65-1.57-1.63.06-.92.68-1.53,1.68-1.58.7-.03,1.39,0,2.09,0Z"/>
    <path class="cls-3" d="m258.45,47.09c.25.08.42.09.55.18,1.41.92,2.84,1.81,4.21,2.79.79.56.93,1.37.35,2.2-.49.71-1.11.89-1.88.39-1.32-.85-2.67-1.67-4-2.52-.78-.5-.66-1.3-.51-2.03.14-.68.87-.68,1.27-1Z"/>
    <path class="cls-3" d="m298.47,54.68c0-1.22,1.38-2.06,2.46-1.42,1.35.8,2.63,1.72,3.94,2.59.83.55.83,1.26.35,2.02-.45.71-1.16.97-1.87.55-1.44-.84-2.83-1.78-4.21-2.72-.33-.22-.72-.51-.67-1.02Z"/>
    <path class="cls-3" d="m340.14,60.34c-.05-1.28.81-1.87,1.99-1.36,1.55.68,2.9,1.68,4.27,2.66.69.49.71,1.26.39,1.87-.31.58-.91,1.12-1.7.75-1.62-.75-3.11-1.74-4.53-2.8-.27-.2-.52-.68-.41-1.13Z"/>
    <path class="cls-3" d="m315.68,25.18c.75,0,1.5-.06,2.24.02.92.1,1.63.52,1.54,1.62-.09,1.05-1.01,1.64-1.72,1.5-1.34-.26-2.57.27-3.87.11-1.2-.14-1.86-.65-1.83-1.88.04-1.22.86-1.43,1.87-1.39.59.03,1.18,0,1.76,0Z"/>
    <path class="cls-3" d="m311.06,15.31c.01,1.58-.78,2.17-2.04,1.51-1.44-.76-2.82-1.64-4.14-2.59-.71-.52-.76-1.34-.23-2.11.56-.82,1.22-.78,2-.28,1.28.82,2.59,1.6,3.89,2.39.49.29.6.72.52,1.09Z"/>
    <path class="cls-3" d="m306.54,20.65c.2,1.04-.7,1.43-1.36,1.55-1.24.22-2.45.54-3.64.92-1.09.35-2.01,0-2.32-1.03-.32-1.1.52-1.76,1.49-2.05,1.35-.39,2.72-.77,4.1-.93.92-.11,1.8.25,1.73,1.54Z"/>
    <path class="cls-3" d="m299.16,60.6c.78.06,1.43.15,1.56,1.09.11.81-.06,1.55-.87,1.87-1.56.6-3.25.72-4.84,1.25-.68.22-1.4-.48-1.57-1.27-.18-.82.33-1.53,1.01-1.76,1.54-.5,3.14-.8,4.71-1.18Z"/>
    <path class="cls-3" d="m257.42,54.9c1.03-.06,1.74.37,1.88,1.22.12.73-.2,1.48-1.07,1.72-1.61.43-3.22.91-4.86,1.2-.52.09-1.24-.24-1.43-1.01-.23-.97.33-1.72,1.02-1.97,1.47-.54,3.04-.8,4.45-1.14Z"/>
    <path class="cls-3" d="m262.86,16.6s0,0,.01,0c.42-.1.84-.23,1.23-.43.36-.18.63-.41.79-.69h0l-2.04,1.12Z"/>
    <path class="cls-3" d="m342.28,67.25h-5.13c1.13-.3,2.27-.47,3.39-.77.78-.05,1.52.09,1.74.77Z"/>
    <path class="cls-3" d="m307.93,66.84h4.27c.52,0,.89.14,1.12.41h-6.75c.32-.31.82-.4,1.36-.41Z"/>
    <path class="cls-3" d="m268.26,63.99c-.69,0-1.38-.02-2.07,0-.99.04-1.61-.58-1.56-1.39.04-.71.49-1.56,1.49-1.58,1.54-.03,3.08-.04,4.61,0,.89.03,1.54.58,1.51,1.47-.03.88-.68,1.38-1.58,1.41-.8.03-1.6,0-2.4,0v.06Z"/>
    <path class="cls-3" d="m280.38,46.74c-.14,1.15-.15,2.33-.44,3.44-.21.78-.66,1.67-1.78,1.44-.96-.2-1.36-.87-1.35-1.84.02-1.33.38-2.61.42-3.94.02-.62.55-1.5,1.63-1.3,1.25.24,1.6,1.05,1.52,2.19Z"/>
    <path class="cls-3" d="m238.59,43.45c-.05.41-.12.83-.23,1.24-.12.47-.37.76-.69.91.29-.73.59-1.44.92-2.15Z"/>
    <path class="cls-3" d="m285.53,9.22c-.26.55-.76.96-1.66.78-.43-.08-.72-.24-.9-.45.84-.13,1.7-.24,2.56-.33Z"/>
    <path class="cls-3" d="m321.72,53.3c.19.89-.2,1.85-.32,2.84-.11.9-.75,1.31-1.53,1.29-.73-.02-1.26-.57-1.34-1.31-.18-1.64,0-3.29.38-4.88.14-.62.81-1.07,1.45-.99.67.09,1.31.5,1.37,1.32.04.53,0,1.07,0,1.74Z"/>
    <path class="cls-3" d="m257.68,42.84c.25-1.28.38-2.6.79-3.82.26-.78,1.01-1.59,1.97-1.15.79.36,1.36,1.11,1.01,2.19-.32.99-.6,2.01-.78,3.03-.17,1.02-.66,1.76-1.68,1.74-1.21-.03-1.34-1-1.31-1.99Z"/>
    <path class="cls-3" d="m303.04,45.32c-.3,1.37-.59,2.75-.91,4.12-.23.95-1.01,1.16-1.8,1-.79-.16-1.38-.74-1.2-1.61.29-1.43.7-2.83,1.08-4.23.24-.86.86-1.2,1.71-.99.86.22,1.16.85,1.12,1.71Z"/>
    <path class="cls-3" d="m271.71,48.22c-.9.08-1.44-.42-1.52-1.15-.08-.72-.07-1.59.94-1.86,1.16-.32,2.38-.51,3.44-1.03,1.22-.6,1.75.17,2.15.91.48.9-.31,1.63-.98,1.91-1.28.55-2.68.83-4.02,1.23Z"/>
    <path class="cls-3" d="m318.19,51.51c.09,1.23-1.17,1.45-2.11,1.64-1.33.26-2.76,1.63-4.08.19-.74-.8-.4-1.8.56-2.25,1.22-.56,2.52-1.04,3.84-1.3.91-.18,1.79.22,1.8,1.72Z"/>
    <path class="cls-3" d="m294.51,22.9c1.17,0,1.71.61,1.94,1.28.21.6-.2,1.27-.78,1.6-1.14.65-2.37,1.09-3.46,1.86-.65.45-1.36,0-1.87-.45-.52-.46-.3-1.04.02-1.58,1.01-1.69,2.96-1.8,4.16-2.69Z"/>
    <path class="cls-3" d="m290.49,65.18c.55.69.21,1.53-.26,1.86-.1.07-.2.14-.3.2h-5.52c.09-.28.28-.53.58-.76,1.09-.85,2.35-1.37,3.61-1.91.81-.35,1.4,0,1.88.61Z"/>
    <path class="cls-3" d="m340.73,54.39c.25-1.28.37-2.55.78-3.73.27-.78.95-1.57,1.97-1.19.92.33,1.32,1.02.93,2.1-.35.98-.59,2.03-.69,3.06-.1,1.17-.65,1.58-1.75,1.57-1.36-.02-1.03-1.06-1.25-1.79Z"/>
    <path class="cls-3" d="m247.16,58.8c1.15-.11,1.64.29,1.84.96.29.99-.28,1.77-1.07,2.09-.98.4-1.93.83-2.79,1.44-.77.55-1.46.27-1.98-.28-.54-.57-.43-1.35.05-1.9,1.14-1.3,2.78-1.77,3.95-2.31Z"/>
    <path class="cls-3" d="m335.95,28.92c.6.68,1.17,1.38,1.73,2.08-.05.06-.11.11-.18.17-1.33.96-2.81,1.63-3.99,2.04-.88.05-1.32.07-1.57-.53-.22-.53-.36-1.01.06-1.47,1.08-1.17,2.51-1.77,3.95-2.3Z"/>
    <path class="cls-3" d="m278.9,10.33s.06.05.08.08c.82.99,2.21,1.56,2.37,2.74-.07,1.48-1.25,2.15-2.22,1.57-.96-.58-1.79-1.34-2.51-2.2-.41-.49-.53-1.03-.36-1.52l2.64-.67Z"/>
    <path class="cls-3" d="m275.52,54.83c-.01,1.54-.94,2.1-2.22,1.34-1.06-.63-1.86-1.58-2.61-2.55-.6-.77-.26-1.34.38-1.9.65-.56,1.23-.57,1.81.04.55.58,1.16,1.08,1.83,1.53.53.36.99.85.81,1.53Z"/>
    <path class="cls-3" d="m317.19,60.43c.05,1.31-1.19,2.15-2.14,1.56-.89-.56-1.75-1.22-2.48-1.96-.77-.78-.79-1.82.02-2.56.85-.79,1.71-.33,2.32.46.72.94,2.06,1.35,2.29,2.5Z"/>
    <path class="cls-3" d="m268.76,28.86c-.09,1.29-.9,1.79-2.06,1.23-1.45-.7-1.98-2.11-2.44-3.48-.22-.65.17-1.43.86-1.69.66-.26,1.47-.15,1.8.59.53,1.17,1.86,1.9,1.84,3.35Z"/>
    <path class="cls-3" d="m320.53,16.34s.02.02.03.03c.61.59,1.17,1.24,1.92,1.69.63.37.68,1,.35,1.67-.28.57-.55,1.05-1.23.92-1.1,0-3.65-2.13-3.75-3.14-.07-.76.11-1.39.88-1.84.1-.06.2-.11.29-.13h0l1.5.8Z"/>
    <path class="cls-3" d="m309.78,63.09c-.15.78-.13,1.78-1.53,1.83-1.33.05-1.62-.75-1.71-1.8-.06-.68-.11-1.35-.23-2.03-.16-.9.34-1.83,1.4-1.97.99-.13,1.69.48,1.69,1.46,0,.83.4,1.55.38,2.51Z"/>
    <path class="cls-3" d="m264.76,42.65c.96-.07,1.54-.06,1.64.52.12.65.29,1.36-.31,1.95-.87.86-1.85,1.53-2.96,2.05-.73.35-1.26.09-1.65-.4-.33-.42-.67-.93-.18-1.54,1.04-1.3,2.44-2.02,3.47-2.57Z"/>
    <path class="cls-3" d="m348.81,54.08h0c.18.79.34,1.59.49,2.39h0c-.78,1.13-2,1.79-3.26,2.24-1.06.38-1.6-.51-1.92-1.42.18-.61.59-1.11,1.1-1.5.75-.57,1.52-1.12,2.3-1.65.45-.32.87-.31,1.28-.05Z"/>
    <path class="cls-3" d="m282.55,48.7c1.4.58,2.82,1.18,3.82,2.39.45.55-.12,1.1-.41,1.58-.3.5-.82.8-1.38.57-1.22-.51-2.41-1.11-3.3-2.14-.45-.52-.38-1.14-.11-1.65.25-.47.7-.83,1.38-.75Z"/>
    <path class="cls-3" d="m305.89,32.69c0-1.11.07-1.81.79-1.98.82-.19,1.59.1,2.08.83.47.7.8,1.49,1.3,2.15.6.78.34,1.31-.23,1.95-.61.69-1.21.57-1.82.15-1.24-.86-1.69-2.21-2.13-3.09Z"/>
    <path class="cls-3" d="m350.26,65.13c.03.7.04,1.41.04,2.12h-2.42c-.03-.3-.03-.6,0-.91.08-.8.41-1.29,1.2-1.43.47-.08.87,0,1.18.22Z"/>
    <path class="cls-3" d="m244.83,45.91c-.02,1.08-1.3,1.95-2.15,1.42-.72-.46-1.52-.76-2.19-1.24-.72-.51-1.51-1.19-.9-2.23.57-.97,1.43-1.22,2.44-.57.75.49,1.47,1.02,2.24,1.48.5.3.61.71.56,1.14Z"/>
    <path class="cls-3" d="m261.28,67.1s.07.09.1.15h-2.69c.54-.99,1.89-1.11,2.59-.15Z"/>
    <path class="cls-3" d="m272.86,12.05h0c.36.16.62.49.69.88.17.93.28,1.88.34,2.82.08,1.09-.36,1.91-1.53,1.97-1.17.07-1.44-.92-1.67-1.79-.11-.45-.02-.96-.02-1.54.03-.47-.19-1.01.01-1.53l2.17-.8Z"/>
    <path class="cls-3" d="m312.06,19.23c-.06-.81.32-1.36,1.12-1.46.66-.08,1.27-.14,1.71.72.61,1.22.27,2.5.48,3.74.09.54-.49,1.29-1.35,1.32-.87.03-1.45-.46-1.62-1.23-.21-1.01-.24-2.06-.35-3.1Z"/>
    <path class="cls-3" d="m302.67,51.46c.16-.37.23-.84.76-1.17.76-.47,1.42-1.1,2.11-1.67.8-.66,1.52-.49,2.2.2.76.78.42,1.39-.23,2.04-.75.76-1.57,1.42-2.53,1.87-1.25.58-2.36,0-2.31-1.27Z"/>
    <path class="cls-3" d="m291.67,8.88s0,0,0,0c.49.4.51,1.01.37,1.57-.18.72-.66,1.21-1.88,1.14-.98-.3-2.17-.99-3.12-1.95-.16-.16-.25-.34-.28-.54,1.62-.15,3.26-.22,4.91-.22Z"/>
    <path class="cls-3" d="m268.08,56.61c.02.95.16,1.81-.72,2.41-.71.48-2.09.17-2.13-.64-.05-1.17-.49-2.28-.4-3.48.08-1,.74-1.39,1.47-1.54.77-.16,1.23.49,1.43,1.17.2.7.54,1.4.35,2.07Z"/>
    <path class="cls-3" d="m253.07,39.05c1.83.52,1.36,2.52,2.02,3.82.43.86-.32,1.45-1.13,1.78-.1.04-.17.15-.27.17-.92.13-2-1.42-2.37-3.5-.19-1.04.14-1.88,1.24-2.24.1-.03.21-.02.51-.03Z"/>
    <path class="cls-3" d="m324.12,54.56c1.45.02,3.78,1.91,3.74,3.01-.04,1.14-.59,1.53-1.73,1.3-1.24-.26-2.13-1.09-3.11-1.75-.64-.43-.39-1.18-.22-1.72.17-.55.68-.95,1.33-.84Z"/>
    <path class="cls-3" d="m246.11,56.43c-1.15.19-1.68-.22-1.88-.86-.19-.6-.18-1.34.5-1.7,1.06-.56,2.14-1.11,3.26-1.52.76-.28,1.13.5,1.51.96.35.43.24.96-.16,1.44-.95,1.14-2.42,1.14-3.23,1.68Z"/>
    <path class="cls-3" d="m296.52,48.69c.14.9-.31,1.51-1.18,1.75-.85.23-1.4-.34-1.69-1-.42-.95-.76-1.95-.96-2.96-.15-.8.59-1.25,1.19-1.52.6-.28,1.38-.02,1.63.58.41,1,1.11,1.94,1.01,3.16Z"/>
    <path class="cls-3" d="m236.45,49c.69-.04,1.15.26,1.41,1.02.29.88.45,1.81.65,2.72.16.7-.33,1.5-1.23,1.74-.89.24-1.32-.31-1.73-.96-.11-.18-.19-.36-.25-.55.33-1.34.72-2.66,1.15-3.96Z"/>
    <path class="cls-3" d="m285.86,60.6c-.09-.61.17-1.01.82-1.28.77-.31,1.51-.69,2.28-1.01.95-.39,1.65-.18,1.96.65.3.79.19,1.67-.75,2.14-.75.38-1.47.83-2.25,1.11-1.22.44-2.08-.26-2.07-1.62Z"/>
    <path class="cls-3" d="m345.83,44.81c.67,1.6,1.27,3.24,1.79,4.91-.04,0-.08,0-.12,0-1.19-.07-3.16-2.2-3.16-3.43-.12-.59.26-1.03.73-1.25.24-.11.51-.2.76-.21Z"/>
    <path class="cls-3" d="m296.84,18.3c.04.54-.25.8-.7,1.1-.84.57-1.81.78-2.66,1.29-.88.52-1.38-.03-1.79-.65-.48-.74-.33-1.51.41-1.97.88-.54,1.78-1.1,2.83-1.32,1.12-.23,1.96.43,1.91,1.55Z"/>
    <path class="cls-3" d="m276.51,56.46c-.21-.9.13-1.67,1.06-1.77.88-.1,1.67.41,1.8,1.38.17,1.25,1.37,2.52.05,3.79-.71.68-1.9.57-2.2-.34-.32-.98-.92-1.92-.71-3.06Z"/>
    <path class="cls-3" d="m335.81,50.68c.82,0,1.21.44,1.42,1,.36.97.66,1.96.96,2.96.26.87-.57,1.05-1.01,1.37-.52.38-1.17.25-1.53-.32-.67-1.06-1.18-2.2-1.31-3.47-.12-1.2.81-1.3,1.48-1.54Z"/>
    <path class="cls-3" d="m283.66,13.23c.67-.15,1.13.19,1.35.9.28.89.61,1.78.82,2.69.23.98-.52,1.5-1.21,1.84-.66.32-1.24-.14-1.58-.74-.67-1.18-.83-2.48-.72-3.82.06-.82.62-.89,1.35-.87Z"/>
    <path class="cls-3" d="m319.18,60.38c.23.01.29,0,.34.02.81.27,1.52.81,1.51,1.65-.01,1.14,1.54,2.3-.04,3.45-.66.48-1.27.53-1.91.12-.78-.5-1.41-4.02-.83-4.7.25-.29.7-.42.93-.54Z"/>
    <path class="cls-3" d="m330.87,67.25c.51-.22.99-.47,1.43-.81.32-.24.47-.57.41-.93-.05-1.01-1.08-1.86-1.98-1.53-.98.36-1.94.83-2.79,1.41-.48.33-.98.99-.6,1.63.04.07.09.15.13.23h3.39Z"/>
    <path class="cls-3" d="m249.96,26.66c.39.26.94.37,1.46.45.21.03.43,0,.65,0,1.35.09,2.67-.23,2.7-1.75.02-1.32-.94-1.48-1.92-1.49l-2.88,2.78Z"/>
    <path class="cls-3" d="m264.61,38.09c-.98.03-3.18-1.87-3.3-2.85-.11-.88.34-1.34,1.09-1.73.78-.41,1.18-.03,1.51.51.36.59,1.01.77,1.47,1.2.64.6.76,1.28.47,2.13-.23.67-.66.76-1.23.73Z"/>
    <path class="cls-3" d="m302.83,40.37c-.01-.58.47-.89.85-1.15.62-.44,1.28-.1,1.74.31.7.63,1.32,1.36,1.89,2.12.37.49.32,1.11,0,1.64-.4.64-1.04.73-1.7.59-.88-.19-2.7-2.57-2.77-3.51Z"/>
    <path class="cls-3" d="m327.21,22.83c.1.82-.19,1.47-1.05,1.67-.91.21-1.48-.49-1.73-1.12-.3-.76-.5-1.59-.72-2.39-.21-.76.12-1.56.83-1.87.8-.35,1.63-.06,1.99.81.37.91.75,1.84.68,2.9Z"/>
    <path class="cls-3" d="m247.32,65.38c.78.11,1.77.35,1.69,1.52,0,.13-.03.24-.05.35h-5.33c-.18-.82.16-1.43.93-1.65.88-.24,1.86-.33,2.77-.22Z"/>
    <path class="cls-3" d="m293.59,29.7c.48,0,.97-.04,1.45.01.65.07,1.04.49,1.15,1.13.1.62,0,1.3-.61,1.52-1.22.43-2.51.81-3.78.14-.71-.37-.93-1.03-.74-1.77.18-.68.65-1.07,1.41-1.04.37.02.75,0,1.13,0h0Z"/>
    <path class="cls-3" d="m289.1,41.11c.43-1.7,2.3-.94,3.52-1.33.84-.27,1.44.59,1.61,1.4.22,1.04-1.11,1.9-3.06,2.04-1.24.09-2.1-.64-2.07-2.11Z"/>
    <path class="cls-3" d="m250.13,34.22c.43,0,.86-.04,1.28,0,.66.07,1.05.48,1.16,1.12.11.61.03,1.34-.59,1.51-1.03.29-2.11.79-3.19.45-.65-.21-1.57-.58-1.32-1.51.22-.85.67-1.72,1.86-1.59.26.03.53,0,.8,0,0,0,0,0,0,0Z"/>
    <path class="cls-3" d="m335.12,35.51c.38,0,.77-.07,1.13.02.75.18,1.75.25,1.6,1.35-.12.89-.72,1.52-1.74,1.53-.59,0-1.19-.05-1.77.01-1.34.14-1.76-.87-1.78-1.77-.02-.89.88-1.18,1.76-1.15.27.01.54,0,.81,0Z"/>
    <path class="cls-3" d="m281.01,56.74c.07-1.27,1.07-1.5,2.01-1.86.96-.36,1.88-.5,2.61.32.42.46.38,1.15,0,1.63-.88,1.1-2.23,1.37-3.51,1.45-.45.03-1.18-.7-1.11-1.54Z"/>
    <path class="cls-3" d="m252.46,62.73c.85-.04,3.01,1.95,2.99,2.87-.01,1.01-.65,1.69-1.61,1.82-.85.11-2.51-1.89-2.55-2.91-.04-.89.53-1.75,1.17-1.78Z"/>
    <path class="cls-3" d="m244.18,50.32c.02,1.06-1.77,2.34-3.23,2.3-.99-.03-1.38-.76-1.46-1.54-.1-.95,1.91-2.29,3.32-2.32.85-.02,1.35.55,1.37,1.56Z"/>
    <path class="cls-3" d="m279.73,62.71c.28-.62.44-1.51,1.38-1.63.91-.11,2.74,1.96,2.81,3.06.07,1.04-.74,1.41-1.47,1.62-.75.21-2.7-2.01-2.72-3.05Z"/>
    <path class="cls-3" d="m286.82,15.18c.28-1.36,1.53-1.49,2.53-1.98.91-.45,1.47,0,2.05.57.65.65.14,1.35-.24,1.67-.94.79-1.97,1.61-3.36,1.18-.65-.2-1.15-.59-.98-1.44Z"/>
    <path class="cls-3" d="m287.1,19.68c.88.02,2.78,2.24,2.6,3.07-.17.81-.71,1.45-1.66,1.44-.83-.01-2.62-2.16-2.48-3.02.15-.87.46-1.7,1.54-1.5Z"/>
    <path class="cls-3" d="m333.69,45.64c1.15-.01,1.97.15,1.93,1.47-.05,1.62-1.34,1.53-2.39,1.62-1.09.09-2.51.31-2.42-1.44.1-2.08,1.87-1.24,2.88-1.65Z"/>
    <path class="cls-3" d="m257.1,23.17c-.04-1.18.31-1.82,1.32-1.86.83-.04,2.97,2.24,2.76,3.08-.19.73-.6,1.49-1.64,1.44-1.02-.04-2.43-1.68-2.43-2.66Z"/>
    <path class="cls-3" d="m322.82,66.88c.22-.04.52.11.86.37h-1.89c.28-.22.67-.3,1.03-.37Z"/>
    <path class="cls-3" d="m340.1,34.28c.64.93,1.25,1.88,1.84,2.85-.08-.06-.17-.14-.26-.22-.82-.76-1.55-1.56-1.59-2.64Z"/>
    <path class="cls-3" d="m299.93,27.11c1.12.07,2.83,2.02,2.71,3.03-.1.89-.62,1.45-1.54,1.46-.78,0-2.76-2.27-2.61-3.07.14-.78.43-1.6,1.44-1.43Z"/>
    <path class="cls-3" d="m238.36,56.89c.08-.69.19-1.44,1.34-1.37,1.13.07,2.56,1.59,2.54,2.81-.02.99-.5,1.63-1.48,1.7-.92.07-2.37-1.83-2.39-3.14Z"/>
    <path class="cls-3" d="m328.65,21.88c.22.17.43.34.65.53-.28-.1-.51-.28-.65-.53Z"/>
    <path class="cls-3" d="m326.1,60.37c.57.02,1.12.46,1.12,1.46,0,1.13-1.35,2.02-3.11,2.1-.88.04-1.45-.13-1.43-1.21.03-1.31,1.27-2.33,3.42-2.35Z"/>
    <path class="cls-3" d="m267.03,21.62c-1.04.3-1.25-.61-1.37-1.36-.14-.93,1.67-2.81,2.56-2.84,1.08-.04,1.55.68,1.66,1.53.13,1-1.67,2.65-2.85,2.67Z"/>
    <path class="cls-3" d="m260.01,61.77c.03-1.18,1.74-3.05,2.75-2.9.82.12,1.32.77,1.4,1.53.1.98-1.74,2.95-2.66,2.85-.78-.09-1.61-.36-1.48-1.47Z"/>
    <path class="cls-3" d="m304.05,64.58c.94,0,1.5.42,1.52,1.44,0,.4-.13.83-.37,1.23h-3.76c.2-.82,2.03-2.67,2.61-2.67Z"/>
    <path class="cls-3" d="m309.84,23.23c.93,0,1.55.39,1.54,1.4-.01,1.07-1.87,2.83-2.84,2.82-1.02-.02-1.23-.79-1.3-1.49-.1-.91,1.75-2.73,2.61-2.72Z"/>
    <path class="cls-3" d="m283.59,27.11c0,1.06.09,2.11-.32,3.14-.32.83-.88,1.18-1.73,1.05-.89-.14-1.27-.73-1.17-1.6.31-2.7.87-3.51,3.25-2.56,0,0-.03-.03-.03-.03Z"/>
    <path class="cls-3" d="m233.54,66.69c.37.48,1.09.76,1.83.07,1.02-.96,1.07-2.19,1.05-3.46v-.02l.03.03h0s-.02,0-.03,0c-.79-.4-1.41-1.78-2.49-.56-.09.11-.18.22-.25.32l-.14,3.62Z"/>
    <path class="cls-3" d="m331.09,28.44c-.07.47-.16,1.01-.87,1.34-.7.32-1.12.07-1.52-.39-.48-.55-1.04-1.08-1.35-1.72-.34-.7-.27-1.51.5-1.96.69-.41,1.4-.35,1.99.31.87.97,1.26,1.66,1.25,2.43Z"/>
    <path class="cls-3" d="m325.27,33.25c-.09,1.09-.12,2.21-.75,3.14-.3.45-.71.99-1.45.62-.59-.29-1.16-.56-1.03-1.38.04-.26-.04-.54.01-.8.18-.83.07-1.74,1.06-2.28,1.08-.58,1.46.48,2.18.73,0,0-.03-.03-.03-.03Z"/>
    <path class="cls-3" d="m290.4,34.84c1.06.23,2.17.35,2.27,1.88.07,1.14-.59,1.56-1.48,1.66-.95.11-2.53-1.32-2.38-2.12.15-.78.46-1.59,1.59-1.42Z"/>
    <path class="cls-3" d="m248.49,29.05c1.46,0,2.86,1.07,2.77,1.93-.1.95-.7,1.69-1.66,1.57-1.09-.14-2.18-.57-2.2-2.02-.01-.99.51-1.46,1.08-1.49Z"/>
    <path class="cls-3" d="m331.9,40.44c.98-.03,2.4,1.16,2.41,2.08.02,1.02-.66,1.38-1.54,1.46-1,.09-2.35-1.11-2.33-2.02.02-.94.79-1.16,1.45-1.51Z"/>
  </g>
</svg>