<?xml version="1.0" encoding="UTF-8" standalone="no"?>
<!DOCTYPE svg PUBLIC "-//W3C//DTD SVG 1.1//EN" "http://www.w3.org/Graphics/SVG/1.1/DTD/svg11.dtd">
<svg width="100%" height="100%" viewBox="0 0 2141 1160" version="1.1" xmlns="http://www.w3.org/2000/svg" xmlns:xlink="http://www.w3.org/1999/xlink" xml:space="preserve" xmlns:serif="http://www.serif.com/" style="fill-rule:evenodd;clip-rule:evenodd;stroke-linejoin:round;stroke-miterlimit:2;">
    <g transform="matrix(-1,-1.22465e-16,1.22465e-16,-1,2140.34,1160.07)">
        <path d="M13.893,398.28C10.723,410.225 8.67,422.521 6.844,434.79C4.594,449.959 2.541,465.202 1.445,480.518C0.337,495.899 0.451,511.412 0.14,526.878C-0.234,545.961 1.437,565.031 3.218,584.147C4.99,603.314 8.156,622.302 12.114,641.246C17.46,666.768 24.027,692.123 32.651,717.022C41.808,743.454 53.536,769.1 65.713,794.655C80.099,824.848 97.949,853.259 117.608,880.83C128.797,896.521 140.906,911.665 153.343,926.656C169.714,946.375 187.489,964.871 206.183,982.519C221.378,996.861 237.664,1010.35 254.497,1023.24C276.669,1040.25 299.839,1055.8 324.027,1070.09C336.063,1077.2 348.51,1083.66 360.973,1090.12C375.839,1097.82 390.985,1104.88 406.477,1111.09C423.426,1117.88 440.537,1124.26 458.091,1129.76C476.727,1135.58 495.467,1140.73 514.419,1145.1C530.538,1148.82 546.959,1151.03 563.305,1153.59C584.228,1156.87 605.207,1158.62 626.047,1159.21C651.984,1159.94 678.013,1159.6 703.613,1156.08C727.185,1152.84 751.152,1151.48 774.65,1148.22C803.97,1144.16 832.729,1137.6 860.73,1128.99C884.538,1121.67 907.56,1112.91 929.964,1102.67C952.341,1092.43 974.149,1081.46 995.748,1069.96C1012.92,1060.82 1029.25,1050.6 1045.73,1040.63C1066.26,1028.18 1086.97,1015.91 1108.52,1005.14C1133.92,992.424 1159.55,979.959 1186.06,968.889C1219.63,954.855 1253.23,940.916 1287.9,929.127C1315.23,919.825 1342.79,910.928 1370.68,902.954C1397.22,895.375 1424.09,888.482 1451.24,882.672C1483.04,875.873 1515.54,871.631 1547.92,866.885C1581.07,862.036 1614.67,860.814 1648.05,858.258C1689.33,855.106 1731.24,857.867 1772.46,852.203C1809.74,847.075 1845.38,837.785 1880.67,827.19C1907.91,819.013 1933.12,807.287 1957.44,793.39C1981.94,779.379 2003.94,763.023 2024.58,744.94C2034.93,735.863 2044.86,726.243 2053.74,715.956C2063.81,704.302 2072.93,691.883 2081.63,679.299C2090,667.183 2096.55,654.042 2103.7,641.228C2113.03,624.496 2118.77,606.554 2124.89,588.703C2128.61,577.835 2131.84,566.752 2133.6,555.284C2135.84,538.371 2139.05,521.691 2139.8,504.404C2141.15,473.886 2139.67,443.585 2132.98,413.298C2125.51,379.536 2115.05,346.277 2098.4,315.049C2079.94,280.456 2056.65,248.366 2028.38,219.236C2013.14,203.523 1996.85,188.781 1979.31,175.605C1964.34,164.365 1948.41,153.994 1931.83,144.454C1902.76,127.72 1872.46,114.02 1840.47,103.864C1808.05,93.555 1774.83,86.841 1741.03,83.902C1706.28,80.878 1671.96,82.433 1637.82,86.705C1609.13,90.297 1581.47,96.974 1555.11,106.813C1534.07,114.663 1513.52,123.896 1493.99,134.381C1468.79,147.904 1448.25,167.825 1420.18,177.692C1404.27,183.292 1391.83,194.546 1375.77,200.274C1346.05,210.865 1315.05,217.476 1283.07,220.052C1263.62,221.618 1243.65,221.573 1224.04,219.759C1200.95,217.617 1177.87,213.655 1155.09,208.305C1138.52,204.411 1121.83,200.967 1105.45,196.387C1086.09,190.974 1067.02,184.565 1047.81,178.563C1036.25,174.947 1024.52,171.723 1013.15,167.553C994.735,160.784 976.838,152.509 958.2,146.475C930.894,137.629 907.094,122.607 882.507,109.112C860.803,97.19 839.682,84.243 817.746,72.674C800.359,63.505 782.184,55.927 764.089,48.115C741.156,38.22 717.533,30.419 693.695,23.628C671.518,17.308 648.768,12.932 625.913,8.931C595.239,3.575 564.614,1.409 533.944,0.637C508.933,0.008 484.161,2.537 459.416,5.058C424.806,8.58 391.71,16.438 359.098,26.265C336.434,33.102 315.406,42.972 294.051,52.302C261.798,66.409 232.641,84.785 205.198,105.213C186.163,119.371 168.42,134.919 151.696,151.613C131.583,171.688 113.499,192.979 97.124,215.666C89.383,226.399 82.595,237.678 75.437,248.748C63.987,266.448 55.07,285.176 46.698,304.234C39.904,319.703 33.125,335.161 27.723,351.211C22.503,366.743 18.175,382.494 13.984,398.283L13.893,398.28Z" style="fill:rgb(242,241,235);fill-rule:nonzero;"/>
    </g>
</svg>
