<?xml version="1.0" standalone="no"?>
<!DOCTYPE svg PUBLIC "-//W3C//DTD SVG 20010904//EN"
 "http://www.w3.org/TR/2001/REC-SVG-20010904/DTD/svg10.dtd">
<svg version="1.0" xmlns="http://www.w3.org/2000/svg"
 width="122.000000pt" height="122.000000pt" viewBox="0 0 122.000000 122.000000"
 preserveAspectRatio="xMidYMid meet">
<metadata>
Created by potrace 1.14, written by Peter Selinger 2001-2017
</metadata>
<g transform="translate(0.000000,122.000000) scale(0.100000,-0.100000)"
fill="#000000" stroke="none">
<path d="M29 1182 c-13 -2 -15 -42 -14 -270 1 -147 3 -270 4 -273 0 -4 67 -6
149 -5 167 2 209 15 249 75 41 61 26 165 -29 206 -16 12 -19 19 -10 22 21 8
42 60 42 103 0 107 -58 140 -248 143 -71 1 -135 1 -143 -1z m229 -155 c32 -25
-5 -54 -68 -53 -32 1 -35 4 -35 31 0 25 5 31 30 36 32 6 52 2 73 -14z m19
-194 c7 -9 13 -20 13 -25 0 -14 -41 -29 -88 -31 l-46 -2 -2 35 c-1 19 0 38 2
42 9 14 109 -1 121 -19z"/>
<path d="M522 910 l3 -275 65 0 65 0 3 273 2 272 -27 1 c-16 1 -47 2 -71 3
l-42 1 2 -275z"/>
<path d="M910 1183 c-121 -40 -183 -128 -184 -263 0 -108 19 -166 73 -220 53
-52 101 -70 187 -70 147 1 234 101 226 261 l-3 64 -112 -1 -112 0 -2 -62 c-2
-36 1 -63 7 -63 5 -1 23 -2 39 -3 43 -2 47 -12 12 -30 -77 -40 -154 -1 -168
85 -17 111 63 184 159 144 10 -4 20 -15 23 -26 6 -16 16 -19 79 -19 l73 0 -2
34 c-8 97 -96 168 -215 172 -36 1 -72 0 -80 -3z"/>
<path d="M130 577 c-42 -13 -105 -75 -112 -109 -10 -51 -1 -125 18 -151 19
-26 82 -58 139 -71 82 -19 105 -28 105 -41 0 -50 -118 -38 -139 14 -11 26 -15
28 -77 27 l-66 0 6 -55 c12 -113 95 -167 242 -158 130 8 184 55 186 165 3 104
-42 150 -170 179 -37 9 -75 21 -85 28 -18 12 -18 14 3 28 36 25 110 6 110 -29
0 -11 17 -14 65 -14 76 0 84 9 66 69 -14 49 -44 87 -84 108 -38 19 -157 25
-207 10z"/>
<path d="M537 582 c-15 -3 -17 -29 -17 -277 l0 -273 68 2 67 2 3 272 2 272
-22 1 c-13 0 -37 1 -54 2 -17 1 -38 1 -47 -1z"/>
<path d="M901 578 c-79 -22 -119 -71 -127 -153 -9 -101 35 -149 169 -180 86
-20 97 -24 97 -41 0 -21 -33 -33 -71 -28 -37 6 -65 27 -74 54 -4 13 -18 17
-70 16 l-65 0 0 -30 c0 -87 51 -155 132 -177 62 -16 186 -7 223 17 59 37 74
62 79 134 4 64 -25 126 -70 152 -17 10 -66 27 -109 37 -85 22 -107 39 -73 57
39 21 108 1 108 -32 0 -11 17 -14 69 -14 l70 0 -3 38 c-3 43 -25 89 -54 115
-46 42 -152 58 -231 35z"/>
</g>
</svg>
